<svg xmlns="http://www.w3.org/2000/svg" viewBox="0 0 512 512">
  <g fill="none" stroke="#662D91" stroke-width="15" stroke-miterlimit="10">
    <path d="M382.24 96.67H147.67c-27.5 0-50 22.5-50 50v131.26c0 27.5 22.5 50 50 50H260v87.63l87.25-87.63h35c27.5 0 50-22.5 50-50V146.67c0-27.5-22.5-50-50-50z"/>
    <path d="M287.8 197.45h-45.7c-1.93 0-3.5-1.57-3.5-3.5v-45.7c0-1.94 1.57-3.5 3.5-3.5h45.7c1.93 0 3.5 1.56 3.5 3.5v45.7c0 1.93-1.56 3.5-3.5 3.5zM239 282h-45.72c-1.92 0-3.5-1.57-3.5-3.5v-45.7c0-1.94 1.58-3.5 3.5-3.5h45.7c1.94 0 3.52 1.56 3.52 3.5v45.7c0 1.93-1.58 3.5-3.5 3.5zm97.63 0H290.9c-1.9 0-3.5-1.57-3.5-3.5v-45.7c0-1.94 1.6-3.5 3.5-3.5h45.73c1.92 0 3.5 1.56 3.5 3.5v45.7c0 1.93-1.58 3.5-3.5 3.5zm-94.13-26.35h44.9m-22.45-58.2v58.2"/>
  </g>
</svg>
