<svg xmlns="http://www.w3.org/2000/svg" viewBox="0 0 20 6">
  <defs>
    <style>
      .cls-1{opacity:.5}.cls-2{fill:#fff}
    </style>
  </defs>
  <path class="cls-1" d="M6 3a3 3 0 1 0 3 3 3 3 0 0 0-3-3zm0 5a2 2 0 1 1 2-2 2 2 0 0 1-2 2z" transform="translate(-3 -3)"/>
  <circle class="cls-2" cx="3" cy="3" r="2"/>
  <path class="cls-1" d="M13 3a3 3 0 1 0 3 3 3 3 0 0 0-3-3zm0 5a2 2 0 1 1 2-2 2 2 0 0 1-2 2z" transform="translate(-3 -3)"/>
  <circle class="cls-2" cx="10" cy="3" r="2"/>
  <path class="cls-1" d="M20 3a3 3 0 1 0 3 3 3 3 0 0 0-3-3zm0 5a2 2 0 1 1 2-2 2 2 0 0 1-2 2z" transform="translate(-3 -3)"/>
  <circle class="cls-2" cx="17" cy="3" r="2"/>
</svg>
