<svg xmlns="http://www.w3.org/2000/svg" viewBox="0 0 20 20">
    <path d="M10 20C4.5 20 0 15.5 0 10 0 4.5 4.5 0 10 0c5.5 0 10 4.5 10 10C20 15.5 15.5 20 10 20zM10 2c-4.4 0-8 3.6-8 8s3.6 8 8 8 8-3.6 8-8S14.4 2 10 2z" opacity=".75"/>
    <path d="M11.4 10l3.3-3.3c0.4-0.4 0.4-1 0-1.4s-1-0.4-1.4 0L10 8.6 6.7 5.3c-0.4-0.4-1-0.4-1.4 0s-0.4 1 0 1.4L8.6 10l-3.3 3.3c-0.4 0.4-0.4 1 0 1.4C5.5 14.9 5.7 15 6 15s0.5-0.1 0.7-0.3l3.3-3.3 3.3 3.3c0.2 0.2 0.5 0.3 0.7 0.3s0.5-0.1 0.7-0.3c0.4-0.4 0.4-1 0-1.4L11.4 10z"/>
</svg>