<svg xmlns="http://www.w3.org/2000/svg" style="display: none;">
  <!-- Toolbar -->
  <symbol id="icon-add-computer" viewBox="0 0 24 24">
    <path fill-rule="evenodd" clip-rule="evenodd"
      d="M8.29289 21.7071C8.48043 21.8946 8.73478 22 9 22H9.5C9.75 22 10 21.9 10.2 21.71L13.9 18H20C20.5304 18 21.0391 17.7893 21.4142 17.4142C21.7893 17.0391 22 16.5304 22 16V4C22 3.46957 21.7893 2.96086 21.4142 2.58579C21.0391 2.21071 20.5304 2 20 2H4C2.9 2 2 2.89 2 4V16C2 16.5304 2.21071 17.0391 2.58579 17.4142C2.96086 17.7893 3.46957 18 4 18H8V21C8 21.2652 8.10536 21.5196 8.29289 21.7071ZM10 19.08V16H4V4H20V16H13.08L10 19.08ZM16.1329 13.2L11.976 6L7.8191 13.2H16.1329Z" />
  </symbol>
  <symbol id="icon-add-situation" viewBox="0 0 24 24">
    <path fill-rule="evenodd" clip-rule="evenodd"
      d="M8.29595 21.7071C8.48348 21.8946 8.73783 22 9.00305 22H9.50305C9.75305 22 10.0031 21.9 10.2031 21.71L13.9031 18H20.0031C20.5335 18 21.0422 17.7893 21.4173 17.4142C21.7923 17.0391 22.0031 16.5304 22.0031 16V4C22.0031 3.46957 21.7923 2.96086 21.4173 2.58579C21.0422 2.21071 20.5335 2 20.0031 2H4.00305C2.90305 2 2.00305 2.89 2.00305 4V16C2.00305 16.5304 2.21377 17.0391 2.58884 17.4142C2.96391 17.7893 3.47262 18 4.00305 18H8.00305V21C8.00305 21.2652 8.10841 21.5196 8.29595 21.7071ZM10.0031 19.08V16H4.00305V4H20.0031V16H13.0831L10.0031 19.08ZM12.5178 9.70549C12.3169 9.91647 12.0444 10.035 11.7602 10.035C11.6195 10.035 11.4802 10.0059 11.3502 9.94936C11.2202 9.89283 11.1021 9.80996 11.0026 9.70549C10.9031 9.60103 10.8242 9.47701 10.7704 9.34052C10.7165 9.20403 10.6888 9.05774 10.6888 8.91C10.6888 8.61163 10.8017 8.32548 11.0026 8.1145C11.2035 7.90353 11.4761 7.785 11.7602 7.785C12.0444 7.785 12.3169 7.90353 12.5178 8.1145C12.7188 8.32548 12.8317 8.61163 12.8317 8.91C12.8317 9.20837 12.7188 9.49452 12.5178 9.70549ZM13.8815 6.68261C13.3189 6.09187 12.5559 5.76 11.7602 5.76C10.9646 5.76 10.2015 6.09187 9.63891 6.68261C9.0763 7.27335 8.76023 8.07457 8.76023 8.91C8.76023 11.2725 11.7602 14.76 11.7602 14.76C11.7602 14.76 14.7602 11.2725 14.7602 8.91C14.7602 8.07457 14.4442 7.27335 13.8815 6.68261Z" />
  </symbol>
  <symbol id="icon-add-sibling" viewBox="0 0 24 24">
    <path fill-rule="evenodd" clip-rule="evenodd"
      d="M14.012 4V6H10.012V4H14.012ZM16.012 2H8.01196V4H4.01196V6H4.01501V12H6.01501V6H8.01196V8H16.012V6H18.015V10H20.015V6H20.012V4H16.012V2ZM8.01196 18V16H4.01196V18H8.01196ZM2.01196 14H10.012V20H2.01196V14ZM12.012 12H22.012V22H12.012V12Z" />
  </symbol>
  <symbol id="icon-validate" viewBox="0 0 24 24">
    <path fill-rule="evenodd" clip-rule="evenodd"
      d="M9.42564 2C11.3958 2 13.2853 2.78265 14.6784 4.17578C16.0716 5.56891 16.8542 7.45839 16.8542 9.42857C16.8542 11.2686 16.1799 12.96 15.0714 14.2629L15.3799 14.5714H16.2828L21.9971 20.2857L20.2828 22L14.5685 16.2857V15.3829L14.2599 15.0743C12.9571 16.1829 11.2656 16.8571 9.42564 16.8571C7.45546 16.8571 5.56598 16.0745 4.17285 14.6814C2.77972 13.2882 1.99707 11.3988 1.99707 9.42857C1.99707 7.45839 2.77972 5.56891 4.17285 4.17578C5.56598 2.78265 7.45546 2 9.42564 2ZM9.42564 4.28571C6.5685 4.28571 4.28278 6.57143 4.28278 9.42857C4.28278 12.2857 6.5685 14.5714 9.42564 14.5714C12.2828 14.5714 14.5685 12.2857 14.5685 9.42857C14.5685 6.57143 12.2828 4.28571 9.42564 4.28571Z M13.3285 7.67696L11.8979 6.24636L8.13833 10.0097L6.85216 8.71976L5.42139 10.1505L8.13815 12.8673L13.3285 7.67696Z" />
  </symbol>
  <symbol id="icon-test-from-location" viewBox="0 0 24 24">
    <path fill-rule="evenodd" clip-rule="evenodd"
      d="M4.27468 16.741C4.70089 17.1629 5.27897 17.4 5.88174 17.4H8.50075C8.44035 17.0088 8.40901 16.6081 8.40901 16.2C8.40901 16.0995 8.41091 15.9995 8.41467 15.9H5.88174C5.68081 15.9 5.48812 15.821 5.34605 15.6803C5.20398 15.5397 5.12416 15.3489 5.12416 15.15C5.12416 14.9925 5.17719 14.8425 5.26052 14.7225L8.10143 9.8475L9.89342 11.6216C10.8649 10.2838 12.251 9.26671 13.863 8.75897L12.6999 6.7575V5.4C12.9008 5.4 13.0935 5.32098 13.2356 5.18033C13.3777 5.03968 13.4575 4.84891 13.4575 4.65V3.9C13.4575 3.50217 13.2979 3.12064 13.0137 2.83934C12.7296 2.55803 12.3442 2.4 11.9423 2.4H8.91204C8.5102 2.4 8.12481 2.55803 7.84067 2.83934C7.55652 3.12064 7.39689 3.50217 7.39689 3.9V4.65C7.39689 4.84891 7.4767 5.03968 7.61878 5.18033C7.76085 5.32098 7.95354 5.4 8.15446 5.4V6.7575L3.9878 13.9275C3.74537 14.28 3.60901 14.7 3.60901 15.15C3.60901 15.7467 3.84846 16.319 4.27468 16.741ZM10.6491 8.61967C10.7912 8.47902 10.9838 8.4 11.1848 8.4C11.3857 8.4 11.5784 8.47902 11.7205 8.61967C11.8625 8.76032 11.9423 8.95109 11.9423 9.15C11.9423 9.34891 11.8625 9.53968 11.7205 9.68033C11.5784 9.82098 11.3857 9.9 11.1848 9.9C10.9838 9.9 10.7912 9.82098 10.6491 9.68033C10.507 9.53968 10.4272 9.34891 10.4272 9.15C10.4272 8.95109 10.507 8.76032 10.6491 8.61967Z" />
    <path
      d="M15.732 16.4C15.2773 16.4 14.8413 16.2314 14.5198 15.9314C14.1983 15.6313 14.0177 15.2243 14.0177 14.8C14.0177 14.3757 14.1983 13.9687 14.5198 13.6686C14.8413 13.3686 15.2773 13.2 15.732 13.2C16.1867 13.2 16.6227 13.3686 16.9442 13.6686C17.2657 13.9687 17.4463 14.3757 17.4463 14.8C17.4463 15.0101 17.402 15.2182 17.3158 15.4123C17.2296 15.6064 17.1034 15.7828 16.9442 15.9314C16.785 16.0799 16.596 16.1978 16.388 16.2782C16.18 16.3586 15.9571 16.4 15.732 16.4ZM15.732 10.32C14.459 10.32 13.2381 10.792 12.3379 11.6322C11.4377 12.4723 10.932 13.6118 10.932 14.8C10.932 18.16 15.732 23.12 15.732 23.12C15.732 23.12 20.532 18.16 20.532 14.8C20.532 13.6118 20.0263 12.4723 19.1261 11.6322C18.2259 10.792 17.005 10.32 15.732 10.32Z" />
  </symbol>
  <symbol id="icon-descendants" viewBox="0 0 24 24">
    <path
      d="M7.00598 22L11.006 18H8.00598V14H6.00598V18H3.00598L7.00598 22ZM17.006 22L13.006 18H16.006V14H18.006V18H21.006L17.006 22Z" />
    <path
      d="M7.00598 2H17.006C18.116 2 19.006 2.9 19.006 4V10C19.006 11.11 18.116 12 17.006 12H7.00598C5.90598 12 5.00598 11.11 5.00598 10V4C5.00598 2.9 5.90598 2 7.00598 2ZM7.00598 4V10H17.006V4H7.00598Z" />
  </symbol>

  <!-- Sidebar -->
  <symbol id="icon-subject" viewBox="0 0 24 24">
    <path
      d="M3.00305 11H11.0031V3H3.00305M5.00305 5H9.00305V9H5.00305M3.00305 21H11.0031V13H3.00305M5.00305 15H9.00305V19H5.00305M13.0031 3V11H21.0031V3M19.0031 9H15.0031V5H19.0031V9Z" />
  </symbol>

  <!-- Node properties -->
  <symbol id="icon-node-jump-subject" viewBox="0 0 24 24">
    <path d="M3.021 21H11.021V13H3.021M5.021 15H9.021V19H5.021" />
    <path d="M13.021 21H21.021V13H13.021" />
    <path
      d="M16.2876 7.06667C15.0543 6.00001 13.4543 5.33334 11.6876 5.33334C8.58761 5.33334 5.96761 7.35334 5.04761 10.1467L6.62094 10.6667C7.32094 8.54001 9.32094 7.00001 11.6876 7.00001C12.9876 7.00001 14.1743 7.48001 15.1009 8.25334L12.6876 10.6667H18.6876V4.66667L16.2876 7.06667Z" />
  </symbol>
</svg>
