<svg xmlns="http://www.w3.org/2000/svg" style="display: none;">
  <symbol id="mdi-alert" viewBox="0 0 24 24">
    <path d="M13 14H11V9H13M13 18H11V16H13M1 21H23L12 2L1 21Z" />
  </symbol>
  <symbol id="mdi-alert-circle" viewBox="0 0 24 24">
    <path d="M13,13H11V7H13M13,17H11V15H13M12,2A10,10 0 0,0 2,12A10,10 0 0,0 12,22A10,10 0 0,0 22,12A10,10 0 0,0 12,2Z" />
  </symbol>
  <symbol id="mdi-arrow-collapse-right" viewBox="0 0 24 24">
    <path d="M12.08,4.08L20,12L12.08,19.92L10.67,18.5L16.17,13H2V11H16.17L10.67,5.5L12.08,4.08M20,12V22H22V2H20V12Z" />
  </symbol>
  <symbol id="mdi-arrow-expand" viewBox="0 0 24 24">
    <path d="M10,21V19H6.41L10.91,14.5L9.5,13.09L5,17.59V14H3V21H10M14.5,10.91L19,6.41V10H21V3H14V5H17.59L13.09,9.5L14.5,10.91Z" />
  </symbol>
  <symbol id="mdi-arrow-left" viewBox="0 0 24 24">
    <path d="M20,11V13H8L13.5,18.5L12.08,19.92L4.16,12L12.08,4.08L13.5,5.5L8,11H20Z" />
  </symbol>
  <symbol id="mdi-arrow-left-bottom" viewBox="0 0 24 24">
    <path d="M20 4V10.5C20 14.09 17.09 17 13.5 17H7.83L10.92 20.09L9.5 21.5L4 16L9.5 10.5L10.91 11.91L7.83 15H13.5C16 15 18 13 18 10.5V4H20Z" />
  </symbol>
  <symbol id="mdi-axis-arrow" viewBox="0 0 24 24">
    <path d="M12,2L16,6H13V13.85L19.53,17.61L21,15.03L22.5,20.5L17,21.96L18.53,19.35L12,15.58L5.47,19.35L7,21.96L1.5,20.5L3,15.03L4.47,17.61L11,13.85V6H8L12,2Z" />
  </symbol>
  <symbol id="mdi-chevron-down" viewBox="0 0 24 24">
    <path d="M7.41,8.58L12,13.17L16.59,8.58L18,10L12,16L6,10L7.41,8.58Z" />
  </symbol>
  <symbol id="mdi-chevron-left" viewBox="0 0 24 24">
    <path d="M15.41,16.58L10.83,12L15.41,7.41L14,6L8,12L14,18L15.41,16.58Z" />
  </symbol>
  <symbol id="mdi-chevron-right" viewBox="0 0 24 24">
    <path d="M8.59,16.58L13.17,12L8.59,7.41L10,6L16,12L10,18L8.59,16.58Z" />
  </symbol>
  <symbol id="mdi-close" viewBox="0 0 24 24">
    <path d="M19,6.41L17.59,5L12,10.59L6.41,5L5,6.41L10.59,12L5,17.59L6.41,19L12,13.41L17.59,19L19,17.59L13.41,12L19,6.41Z" />
  </symbol>
  <symbol id="mdi-close-thick" viewBox="0 0 24 24">
    <path d="M20 6.91L17.09 4L12 9.09L6.91 4L4 6.91L9.09 12L4 17.09L6.91 20L12 14.91L17.09 20L20 17.09L14.91 12L20 6.91Z" />
  </symbol>
  <symbol id="mdi-cog" viewBox="0 0 24 24">
    <path d="M12,15.5A3.5,3.5 0 0,1 8.5,12A3.5,3.5 0 0,1 12,8.5A3.5,3.5 0 0,1 15.5,12A3.5,3.5 0 0,1 12,15.5M19.43,12.97C19.47,12.65 19.5,12.33 19.5,12C19.5,11.67 19.47,11.34 19.43,11L21.54,9.37C21.73,9.22 21.78,8.95 21.66,8.73L19.66,5.27C19.54,5.05 19.27,4.96 19.05,5.05L16.56,6.05C16.04,5.66 15.5,5.32 14.87,5.07L14.5,2.42C14.46,2.18 14.25,2 14,2H10C9.75,2 9.54,2.18 9.5,2.42L9.13,5.07C8.5,5.32 7.96,5.66 7.44,6.05L4.95,5.05C4.73,4.96 4.46,5.05 4.34,5.27L2.34,8.73C2.21,8.95 2.27,9.22 2.46,9.37L4.57,11C4.53,11.34 4.5,11.67 4.5,12C4.5,12.33 4.53,12.65 4.57,12.97L2.46,14.63C2.27,14.78 2.21,15.05 2.34,15.27L4.34,18.73C4.46,18.95 4.73,19.03 4.95,18.95L7.44,17.94C7.96,18.34 8.5,18.68 9.13,18.93L9.5,21.58C9.54,21.82 9.75,22 10,22H14C14.25,22 14.46,21.82 14.5,21.58L14.87,18.93C15.5,18.67 16.04,18.34 16.56,17.94L19.05,18.95C19.27,19.03 19.54,18.95 19.66,18.73L21.66,15.27C21.78,15.05 21.73,14.78 21.54,14.63L19.43,12.97Z" />
  </symbol>
  <symbol id="mdi-comment-account-outline" viewBox="0 0 24 24">
    <path d="M9,22A1,1 0 0,1 8,21V18H4A2,2 0 0,1 2,16V4C2,2.89 2.9,2 4,2H20A2,2 0 0,1 22,4V16A2,2 0 0,1 20,18H13.9L10.2,21.71C10,21.9 9.75,22 9.5,22V22H9M10,16V19.08L13.08,16H20V4H4V16H10M16,14H8V13C8,11.67 10.67,11 12,11C13.33,11 16,11.67 16,13V14M12,6A2,2 0 0,1 14,8A2,2 0 0,1 12,10A2,2 0 0,1 10,8A2,2 0 0,1 12,6Z" />
  </symbol>
  <symbol id="mdi-content-copy" viewBox="0 0 24 24">
    <path d="M19,21H8V7H19M19,5H8A2,2 0 0,0 6,7V21A2,2 0 0,0 8,23H19A2,2 0 0,0 21,21V7A2,2 0 0,0 19,5M16,1H4A2,2 0 0,0 2,3V17H4V3H16V1Z" />
  </symbol>
  <symbol id="mdi-content-cut" viewBox="0 0 24 24">
    <path d="M19,3L13,9L15,11L22,4V3M12,12.5A0.5,0.5 0 0,1 11.5,12A0.5,0.5 0 0,1 12,11.5A0.5,0.5 0 0,1 12.5,12A0.5,0.5 0 0,1 12,12.5M6,20A2,2 0 0,1 4,18C4,16.89 4.9,16 6,16A2,2 0 0,1 8,18C8,19.11 7.1,20 6,20M6,8A2,2 0 0,1 4,6C4,4.89 4.9,4 6,4A2,2 0 0,1 8,6C8,7.11 7.1,8 6,8M9.64,7.64C9.87,7.14 10,6.59 10,6A4,4 0 0,0 6,2A4,4 0 0,0 2,6A4,4 0 0,0 6,10C6.59,10 7.14,9.87 7.64,9.64L10,12L7.64,14.36C7.14,14.13 6.59,14 6,14A4,4 0 0,0 2,18A4,4 0 0,0 6,22A4,4 0 0,0 10,18C10,17.41 9.87,16.86 9.64,16.36L12,14L19,21H22V20L9.64,7.64Z" />
  </symbol>
  <symbol id="mdi-content-paste" viewBox="0 0 24 24">
    <path d="M19,20H5V4H7V7H17V4H19M12,2A1,1 0 0,1 13,3A1,1 0 0,1 12,4A1,1 0 0,1 11,3A1,1 0 0,1 12,2M19,2H14.82C14.4,0.84 13.3,0 12,0C10.7,0 9.6,0.84 9.18,2H5A2,2 0 0,0 3,4V20A2,2 0 0,0 5,22H19A2,2 0 0,0 21,20V4A2,2 0 0,0 19,2Z" />
  </symbol>
  <symbol id="mdi-content-save" viewBox="0 0 24 24">
    <path d="M15,9H5V5H15M12,19A3,3 0 0,1 9,16A3,3 0 0,1 12,13A3,3 0 0,1 15,16A3,3 0 0,1 12,19M17,3H5C3.89,3 3,3.9 3,5V19A2,2 0 0,0 5,21H19A2,2 0 0,0 21,19V7L17,3Z" />
  </symbol>
  <symbol id="mdi-dots-horizontal" viewBox="0 0 24 24">
    <path d="M16,12A2,2 0 0,1 18,10A2,2 0 0,1 20,12A2,2 0 0,1 18,14A2,2 0 0,1 16,12M10,12A2,2 0 0,1 12,10A2,2 0 0,1 14,12A2,2 0 0,1 12,14A2,2 0 0,1 10,12M4,12A2,2 0 0,1 6,10A2,2 0 0,1 8,12A2,2 0 0,1 6,14A2,2 0 0,1 4,12Z" />
  </symbol>
  <symbol id="mdi-download" viewBox="0 0 24 24">
    <path d="M5,20H19V18H5M19,9H15V3H9V9H5L12,16L19,9Z" />
  </symbol>
  <symbol id="mdi-filter-cog" viewBox="0 0 24 24">
    <path d="M22.77 19.32L21.7 18.5C21.72 18.33 21.74 18.17 21.74 18S21.73 17.67 21.7 17.5L22.76 16.68C22.85 16.6 22.88 16.47 22.82 16.36L21.82 14.63C21.76 14.5 21.63 14.5 21.5 14.5L20.27 15C20 14.82 19.73 14.65 19.42 14.53L19.23 13.21C19.22 13.09 19.11 13 19 13H17C16.87 13 16.76 13.09 16.74 13.21L16.55 14.53C16.25 14.66 15.96 14.82 15.7 15L14.46 14.5C14.35 14.5 14.22 14.5 14.15 14.63L13.15 16.36C13.09 16.47 13.11 16.6 13.21 16.68L14.27 17.5C14.25 17.67 14.24 17.83 14.24 18S14.25 18.33 14.27 18.5L13.21 19.32C13.12 19.4 13.09 19.53 13.15 19.64L14.15 21.37C14.21 21.5 14.34 21.5 14.46 21.5L15.7 21C15.96 21.18 16.24 21.35 16.55 21.47L16.74 22.79C16.76 22.91 16.86 23 17 23H19C19.11 23 19.22 22.91 19.24 22.79L19.43 21.47C19.73 21.34 20 21.18 20.27 21L21.5 21.5C21.63 21.5 21.76 21.5 21.83 21.37L22.83 19.64C22.89 19.53 22.86 19.4 22.77 19.32M18 19.5C17.16 19.5 16.5 18.83 16.5 18S17.17 16.5 18 16.5 19.5 17.17 19.5 18 18.83 19.5 18 19.5M3 3C2.78 3 2.57 3.08 2.38 3.22C1.95 3.56 1.87 4.19 2.21 4.62L7.97 12H8V17.87C7.96 18.16 8.06 18.47 8.29 18.7L10.3 20.71C10.65 21.06 11.19 21.08 11.58 20.8C11.2 19.91 11 18.96 11 18C11 16.73 11.35 15.5 12 14.4V12H12.03L17.79 4.62C18.13 4.19 18.05 3.56 17.62 3.22C17.43 3.08 17.22 3 17 3H3Z" />
  </symbol>
  <symbol id="mdi-format-list-bulleted-square" viewBox="0 0 24 24">
    <path d="M3,4H7V8H3V4M9,5V7H21V5H9M3,10H7V14H3V10M9,11V13H21V11H9M3,16H7V20H3V16M9,17V19H21V17H9" />
  </symbol>
  <symbol id="mdi-information-slab-circle-outline" viewBox="0 0 24 24">
    <path d="M11 7V9H13V7H11M14 17V15H13V11H10V13H11V15H10V17H14M22 12C22 17.5 17.5 22 12 22C6.5 22 2 17.5 2 12C2 6.5 6.5 2 12 2C17.5 2 22 6.5 22 12M20 12C20 7.58 16.42 4 12 4C7.58 4 4 7.58 4 12C4 16.42 7.58 20 12 20C16.42 20 20 16.42 20 12Z" />
  </symbol>
  <symbol id="mdi-list-status" viewBox="0 0 24 24">
    <path d="M16.5 11L13 7.5L14.4 6.1L16.5 8.2L20.7 4L22.1 5.4L16.5 11M11 7H2V9H11V7M21 13.4L19.6 12L17 14.6L14.4 12L13 13.4L15.6 16L13 18.6L14.4 20L17 17.4L19.6 20L21 18.6L18.4 16L21 13.4M11 15H2V17H11V15Z" />
  </symbol>
  <symbol id="mdi-magnet" viewBox="0 0 24 24">
    <path d="M3,7V13A9,9 0 0,0 12,22A9,9 0 0,0 21,13V7H17V13A5,5 0 0,1 12,18A5,5 0 0,1 7,13V7M17,5H21V2H17M3,5H7V2H3" />
  </symbol>
  <symbol id="mdi-magnify" viewBox="0 0 24 24">
    <path d="M9.5,3A6.5,6.5 0 0,1 16,9.5C16,11.11 15.41,12.59 14.44,13.73L14.71,14H15.5L20.5,19L19,20.5L14,15.5V14.71L13.73,14.44C12.59,15.41 11.11,16 9.5,16A6.5,6.5 0 0,1 3,9.5A6.5,6.5 0 0,1 9.5,3M9.5,5C7,5 5,7 5,9.5C5,12 7,14 9.5,14C12,14 14,12 14,9.5C14,7 12,5 9.5,5Z" />
  </symbol>
  <symbol id="mdi-map-search-outline" viewBox="0 0 24 24">
    <path d="M15.5,12C18,12 20,14 20,16.5C20,17.38 19.75,18.2 19.31,18.9L22.39,22L21,23.39L17.88,20.32C17.19,20.75 16.37,21 15.5,21C13,21 11,19 11,16.5C11,14 13,12 15.5,12M15.5,14A2.5,2.5 0 0,0 13,16.5A2.5,2.5 0 0,0 15.5,19A2.5,2.5 0 0,0 18,16.5A2.5,2.5 0 0,0 15.5,14M19.5,2A0.5,0.5 0 0,1 20,2.5V11.81C19.42,11.26 18.75,10.81 18,10.5V4.7L15,5.86V10C14.3,10.07 13.62,10.24 13,10.5V5.87L9,4.47V16.13H9V16.5C9,17.14 9.09,17.76 9.26,18.34L8,17.9L2.66,19.97L2.5,20A0.5,0.5 0 0,1 2,19.5V4.38C2,4.15 2.15,3.97 2.36,3.9L8,2L14,4.1L19.34,2.03L19.5,2M4,5.46V17.31L7,16.15V4.45L4,5.46Z" />
  </symbol>
  <symbol id="mdi-menu-down" viewBox="0 0 24 24">
    <path d="M7,10L12,15L17,10H7Z" />
  </symbol>
  <symbol id="mdi-middleware-outline" viewBox="0 0 24 24">
    <path d="M23 12L19 8V11H15.86C15.41 9.28 13.86 8 12 8S8.59 9.28 8.14 11H5L2 8V16L5 13H8.14C8.59 14.72 10.14 16 12 16S15.41 14.72 15.86 13H19V16L23 12M12 14C10.9 14 10 13.1 10 12C10 10.9 10.9 10 12 10S14 10.9 14 12C14 13.1 13.1 14 12 14Z" />
  </symbol>
  <symbol id="mdi-minus-circle-outline" viewBox="0 0 24 24">
    <path d="M12,20C7.59,20 4,16.41 4,12C4,7.59 7.59,4 12,4C16.41,4 20,7.59 20,12C20,16.41 16.41,20 12,20M12,2A10,10 0 0,0 2,12A10,10 0 0,0 12,22A10,10 0 0,0 22,12A10,10 0 0,0 12,2M7,13H17V11H7" />
  </symbol>
  <symbol id="mdi-moon-waning-crescent" viewBox="0 0 24 24">
    <path d="M2 12A10 10 0 0 0 15 21.54A10 10 0 0 1 15 2.46A10 10 0 0 0 2 12Z" />
  </symbol>
  <symbol id="mdi-note-text-outline" viewBox="0 0 24 24">
    <path d="M15 3H5A2 2 0 0 0 3 5V19A2 2 0 0 0 5 21H19A2 2 0 0 0 21 19V9L15 3M19 19H5V5H14V10H19M17 14H7V12H17M14 17H7V15H14" />
  </symbol>
  <symbol id="mdi-pencil" viewBox="0 0 24 24">
    <path d="M20.71,7.04C21.1,6.65 21.1,6 20.71,5.63L18.37,3.29C18,2.9 17.35,2.9 16.96,3.29L15.12,5.12L18.87,8.87M3,17.25V21H6.75L17.81,9.93L14.06,6.18L3,17.25Z" />
  </symbol>
  <symbol id="mdi-pencil-plus" viewBox="0 0 24 24">
    <path d="M20.7,7C21.1,6.6 21.1,6 20.7,5.6L18.4,3.3C18,2.9 17.4,2.9 17,3.3L15.2,5.1L19,8.9M3,17.2V21H6.8L17.8,9.9L14.1,6.1L3,17.2M7,2V5H10V7H7V10H5V7H2V5H5V2H7Z" />
  </symbol>
  <symbol id="mdi-plus" viewBox="0 0 24 24">
    <path d="M19,13H13V19H11V13H5V11H11V5H13V11H19V13Z" />
  </symbol>
  <symbol id="mdi-plus-circle-outline" viewBox="0 0 24 24">
    <path d="M12,20C7.59,20 4,16.41 4,12C4,7.59 7.59,4 12,4C16.41,4 20,7.59 20,12C20,16.41 16.41,20 12,20M12,2A10,10 0 0,0 2,12A10,10 0 0,0 12,22A10,10 0 0,0 22,12A10,10 0 0,0 12,2M13,7H11V11H7V13H11V17H13V13H17V11H13V7Z" />
  </symbol>
  <symbol id="mdi-printer" viewBox="0 0 24 24">
    <path d="M18,3H6V7H18M19,12A1,1 0 0,1 18,11A1,1 0 0,1 19,10A1,1 0 0,1 20,11A1,1 0 0,1 19,12M16,19H8V14H16M19,8H5A3,3 0 0,0 2,11V17H6V21H18V17H22V11A3,3 0 0,0 19,8Z" />
  </symbol>
  <symbol id="mdi-rename" viewBox="0 0 24 24">
    <path d="M15 16L11 20H21V16H15M12.06 7.19L3 16.25V20H6.75L15.81 10.94L12.06 7.19M18.71 8.04C19.1 7.65 19.1 7 18.71 6.63L16.37 4.29C16.17 4.09 15.92 4 15.66 4C15.41 4 15.15 4.1 14.96 4.29L13.13 6.12L16.88 9.87L18.71 8.04Z" />
  </symbol>
  <symbol id="mdi-seal" viewBox="0 0 24 24">
    <path d="M20.39,19.37L16.38,18L15,22L11.92,16L9,22L7.62,18L3.61,19.37L6.53,13.37C5.57,12.17 5,10.65 5,9A7,7 0 0,1 12,2A7,7 0 0,1 19,9C19,10.65 18.43,12.17 17.47,13.37L20.39,19.37M7,9L9.69,10.34L9.5,13.34L12,11.68L14.5,13.33L14.33,10.34L17,9L14.32,7.65L14.5,4.67L12,6.31L9.5,4.65L9.67,7.66L7,9Z" />
  </symbol>
  <symbol id="mdi-selection-search" viewBox="0 0 24 24">
    <path d="M19.27 18.9C19.7 18.21 19.95 17.38 19.95 16.5C19.95 14 17.95 12 15.46 12S10.96 14 10.96 16.5 12.96 21 15.46 21C16.33 21 17.15 20.75 17.84 20.32L20.96 23.39L22.35 22L19.27 18.9M15.46 19C14.07 19 12.96 17.88 12.96 16.5S14.07 14 15.46 14 17.95 15.12 17.95 16.5 16.84 19 15.46 19M22 14H21.45C21.12 13.19 20.62 12.47 20 11.86V10H22V14M20 4H17V2H20C21.11 2 22 2.9 22 4V7H20V4M14 4H10V2H14V4M4 2H7V4H4V7H2V4C2 2.89 2.9 2 4 2M12 22H10V20C10.5 20.82 11.2 21.5 12 22M4 20H7V22H4C2.9 22 2 21.11 2 20V17H4V20M4 14H2V10H4V14Z" />
  </symbol>
  <symbol id="mdi-sitemap-outline" viewBox="0 0 24 24">
    <path d="M21 16V13C21 11.89 20.11 11 19 11H13V8H15V2H9V8H11V11H5C3.89 11 3 11.89 3 13V16H1V22H7V16H5V13H11V16H9V22H15V16H13V13H19V16H17V22H23V16H21M11 4H13V6H11V4M5 20H3V18H5V20M13 20H11V18H13V20M21 20H19V18H21V20Z" />
  </symbol>
  <symbol id="mdi-timer-outline" viewBox="0 0 24 24">
    <path d="M12,20A7,7 0 0,1 5,13A7,7 0 0,1 12,6A7,7 0 0,1 19,13A7,7 0 0,1 12,20M19.03,7.39L20.45,5.97C20,5.46 19.55,5 19.04,4.56L17.62,6C16.07,4.74 14.12,4 12,4A9,9 0 0,0 3,13A9,9 0 0,0 12,22C17,22 21,17.97 21,13C21,10.88 20.26,8.93 19.03,7.39M11,14H13V8H11M15,1H9V3H15V1Z" />
  </symbol>
  <symbol id="mdi-trash-can-outline" viewBox="0 0 24 24">
    <path d="M9,3V4H4V6H5V19A2,2 0 0,0 7,21H17A2,2 0 0,0 19,19V6H20V4H15V3H9M7,6H17V19H7V6M9,8V17H11V8H9M13,8V17H15V8H13Z" />
  </symbol>
  <symbol id="mdi-upload" viewBox="0 0 24 24">
    <path d="M9,16V10H5L12,3L19,10H15V16H9M5,20V18H19V20H5Z" />
  </symbol>
</svg>
