<svg xmlns="http://www.w3.org/2000/svg" style="display: none;">
  <defs>
    <style>
      .red { fill: #ce192a; }
      .blue { fill: #00aeef; }
      .yellow { fill: #F59341; }
      .purple { fill: #662d91; }
      .green { fill: #2b8000; }
      .teal { fill: #2b8090; }
      .skin { fill: #b38659; }
      .white { fill: white; }
    </style>
  </defs>
  <!-- Toolbar -->
  <symbol id="icon-child" viewBox="0 0 24 24">
    <path d="M6.74695 0H2.24695C1.00195 0 -0.00305176 1.005 -0.00305176 2.25V6.75C-0.00305176 7.995 1.00195 9 2.24695 9H6.74695C7.99195 9 8.99695 7.995 8.99695 6.75V2.25C8.99695 1.005 7.99195 0 6.74695 0ZM7.49695 6.75C7.49695 7.17 7.16695 7.5 6.74695 7.5H2.24695C1.82695 7.5 1.49695 7.17 1.49695 6.75V2.25C1.49695 1.83 1.82695 1.5 2.24695 1.5H6.74695C7.16695 1.5 7.49695 1.83 7.49695 2.25V6.75Z"/>
    <path d="M23.9969 11.25V18H22.4969V11.25C22.4969 10.83 22.1669 10.5 21.7469 10.5H11.2469C10.8269 10.5 10.4969 10.83 10.4969 11.25V21.75C10.4969 22.17 10.8269 22.5 11.2469 22.5H17.9969V24H11.2469C10.0019 24 8.99695 22.995 8.99695 21.75V11.25C8.99695 10.005 10.0019 9 11.2469 9H21.7469C22.9919 9 23.9969 10.005 23.9969 11.25Z"/>
    <path d="M8.99695 15.75V17.25H5.99695C4.75195 17.25 3.74695 16.245 3.74695 15V9H5.24695V15C5.24695 15.42 5.57695 15.75 5.99695 15.75H8.99695Z"/>
    <path d="M23.9969 19.5V21H20.9969V24H19.4969V21H16.4969V19.5H19.4969V16.5H20.9969V19.5H23.9969Z"/>
  </symbol>
  <symbol id="icon-add-best-practice-child" viewBox="0 0 24 24">
    <path d="M6.76196 0H2.26196C1.01696 0 0.0119629 1.005 0.0119629 2.25V6.75C0.0119629 7.995 1.01696 9 2.26196 9H6.76196C8.00696 9 9.01196 7.995 9.01196 6.75V2.25C9.01196 1.005 8.00696 0 6.76196 0ZM7.51196 6.75C7.51196 7.17 7.18196 7.5 6.76196 7.5H2.26196C1.84196 7.5 1.51196 7.17 1.51196 6.75V2.25C1.51196 1.83 1.84196 1.5 2.26196 1.5H6.76196C7.18196 1.5 7.51196 1.83 7.51196 2.25V6.75Z"/>
    <path d="M24.012 12.75V18H22.512V12.75C22.512 12.33 22.182 12 21.762 12H12.762C12.342 12 12.012 12.33 12.012 12.75V21.75C12.012 22.17 12.342 22.5 12.762 22.5H18.012V24H12.762C11.517 24 10.512 22.995 10.512 21.75V12.75C10.512 11.505 11.517 10.5 12.762 10.5H21.762C23.007 10.5 24.012 11.505 24.012 12.75Z"/>
    <path d="M6.01202 15.75H7.07702L5.62202 17.205C4.55702 17.025 3.76202 16.11 3.76202 15V9H5.26202V15C5.26202 15.42 5.59202 15.75 6.01202 15.75ZM10.512 15.75V17.25H10.437L8.93702 15.75H10.512ZM9.07202 18L3.50702 23.565L0.447021 20.505L1.51202 19.44L3.50702 21.435L8.00702 16.935L8.32202 17.25L9.07202 18Z"/>
    <path d="M24.012 19.5V21H21.012V24H19.512V21H16.512V19.5H19.512V16.5H21.012V19.5H24.012Z"/>
  </symbol>
  <symbol id="icon-add-children" viewBox="0 0 24 24">
    <path d="M14.265 0H9.76501C8.52001 0 7.51501 1.005 7.51501 2.25V6.75C7.51501 7.995 8.52001 9 9.76501 9H14.265C15.51 9 16.515 7.995 16.515 6.75V2.25C16.515 1.005 15.51 0 14.265 0ZM15.015 6.75C15.015 7.17 14.685 7.5 14.265 7.5H9.76501C9.34501 7.5 9.01501 7.17 9.01501 6.75V2.25C9.01501 1.83 9.34501 1.5 9.76501 1.5H14.265C14.685 1.5 15.015 1.83 15.015 2.25V6.75Z"/>
    <path d="M5.26501 7.5H2.26501C1.02001 7.5 0.0150146 8.505 0.0150146 9.75V12.75C0.0150146 13.995 1.02001 15 2.26501 15H5.26501C6.51001 15 7.51501 13.995 7.51501 12.75V9.75C7.51501 8.505 6.51001 7.5 5.26501 7.5ZM6.01501 12.75C6.01501 13.17 5.68501 13.5 5.26501 13.5H2.26501C1.84501 13.5 1.51501 13.17 1.51501 12.75V9.75C1.51501 9.33 1.84501 9 2.26501 9H5.26501C5.68501 9 6.01501 9.33 6.01501 9.75V12.75Z"/>
    <path d="M5.26501 16.5H2.26501C1.02001 16.5 0.0150146 17.505 0.0150146 18.75V21.75C0.0150146 22.995 1.02001 24 2.26501 24H5.26501C6.51001 24 7.51501 22.995 7.51501 21.75V18.75C7.51501 17.505 6.51001 16.5 5.26501 16.5ZM6.01501 21.75C6.01501 22.17 5.68501 22.5 5.26501 22.5H2.26501C1.84501 22.5 1.51501 22.17 1.51501 21.75V18.75C1.51501 18.33 1.84501 18 2.26501 18H5.26501C5.68501 18 6.01501 18.33 6.01501 18.75V21.75Z"/>
    <path d="M21.765 7.5H18.765C17.52 7.5 16.515 8.505 16.515 9.75V12.75C16.515 13.995 17.52 15 18.765 15H21.765C23.01 15 24.015 13.995 24.015 12.75V9.75C24.015 8.505 23.01 7.5 21.765 7.5ZM22.515 12.75C22.515 13.17 22.185 13.5 21.765 13.5H18.765C18.345 13.5 18.015 13.17 18.015 12.75V9.75C18.015 9.33 18.345 9 18.765 9H21.765C22.185 9 22.515 9.33 22.515 9.75V12.75Z"/>
    <path d="M11.265 9V18.75C11.265 19.995 10.26 21 9.01501 21H7.51501V19.5H9.01501C9.43501 19.5 9.76501 19.17 9.76501 18.75V11.865C9.52501 11.955 9.28501 12 9.01501 12H7.51501V10.5H9.01501C9.43501 10.5 9.76501 10.17 9.76501 9.75V9H11.265ZM16.515 10.5V12H15.015C14.745 12 14.505 11.955 14.265 11.865V18.75C14.265 19.17 14.595 19.5 15.015 19.5V21C13.77 21 12.765 19.995 12.765 18.75V9H14.265V9.75C14.265 10.17 14.595 10.5 15.015 10.5H16.515Z"/>
    <path d="M24.015 19.5V21H21.015V24H19.515V21H16.515V19.5H19.515V16.5H21.015V19.5H24.015Z"/>
  </symbol>
  <symbol id="icon-add-sibling" viewBox="0 0 24 24">
    <path d="M14.2679 0H9.76794C8.52294 0 7.51794 1.005 7.51794 2.25V6.75C7.51794 7.995 8.52294 9 9.76794 9H14.2679C15.5129 9 16.5179 7.995 16.5179 6.75V2.25C16.5179 1.005 15.5129 0 14.2679 0ZM15.0179 6.75C15.0179 7.17 14.6879 7.5 14.2679 7.5H9.76794C9.34794 7.5 9.01794 7.17 9.01794 6.75V2.25C9.01794 1.83 9.34794 1.5 9.76794 1.5H14.2679C14.6879 1.5 15.0179 1.83 15.0179 2.25V6.75Z"/>
    <path d="M24.0179 12.75V18H22.5179V12.75C22.5179 12.33 22.1879 12 21.7679 12H12.7679C12.3479 12 12.0179 12.33 12.0179 12.75V21.75C12.0179 22.17 12.3479 22.5 12.7679 22.5H18.0179V24H12.7679C11.5229 24 10.5179 22.995 10.5179 21.75V12.75C10.5179 11.505 11.5229 10.5 12.7679 10.5H21.7679C23.0129 10.5 24.0179 11.505 24.0179 12.75Z"/>
    <path d="M5.26794 10.5H3.76794V6C3.76794 4.7595 4.77744 3.75 6.01794 3.75H7.51794V5.25H6.01794C5.81903 5.25 5.62827 5.32902 5.48761 5.46967C5.34696 5.61032 5.26794 5.80109 5.26794 6V10.5Z"/>
    <path d="M6.76794 10.5H2.26794C1.02294 10.5 0.0179443 11.505 0.0179443 12.75V17.25C0.0179443 18.495 1.02294 19.5 2.26794 19.5H6.76794C8.01294 19.5 9.01794 18.495 9.01794 17.25V12.75C9.01794 11.505 8.01294 10.5 6.76794 10.5ZM7.51794 17.25C7.51794 17.67 7.18794 18 6.76794 18H2.26794C1.84794 18 1.51794 17.67 1.51794 17.25V12.75C1.51794 12.33 1.84794 12 2.26794 12H6.76794C7.18794 12 7.51794 12.33 7.51794 12.75V17.25Z"/>
    <path d="M20.2679 6V10.5H18.7679V6C18.7679 5.58 18.4379 5.25 18.0179 5.25H16.5179V3.75H18.0179C19.2629 3.75 20.2679 4.755 20.2679 6Z"/>
    <path d="M24.0179 19.5H21.0179V16.5H19.5179V19.5H16.5179V21H19.5179V24H21.0179V21H24.0179V19.5Z"/>
  </symbol>
  <symbol id="icon-ancestors" viewBox="0 0 24 24">
    <path d="M21.7531 15H17.2531C16.0531 15 15.0031 16.05 15.0031 17.25V21.75C15.0031 22.95 16.0531 24 17.2531 24H21.7531C22.9531 24 24.0031 22.95 24.0031 21.75V17.25C24.0031 16.05 22.9531 15 21.7531 15ZM22.5031 21.75C22.5031 22.2 22.2031 22.5 21.7531 22.5H17.2531C16.8031 22.5 16.5031 22.2 16.5031 21.75V17.25C16.5031 16.8 16.8031 16.5 17.2531 16.5H21.7531C22.2031 16.5 22.5031 16.8 22.5031 17.25V21.75Z"/>
    <path d="M12.303 3.3V11.7C12.303 12.06 12.063 12.3 11.703 12.3H3.303C2.943 12.3 2.703 12.06 2.703 11.7V3.3C2.703 2.94 2.943 2.7 3.303 2.7H11.703C12.063 2.7 12.303 2.94 12.303 3.3Z"/>
    <path d="M15.0031 2.25V12.75C15.0031 13.95 13.9531 15 12.7531 15H9.30305L7.95305 13.65C7.95305 13.5 7.65305 13.5 7.50305 13.5H12.7531C13.2031 13.5 13.5031 13.2 13.5031 12.75V2.25C13.5031 1.8 13.2031 1.5 12.7531 1.5H2.25305C1.80305 1.5 1.50305 1.8 1.50305 2.25V12.75C1.50305 13.2 1.80305 13.5 2.25305 13.5H7.50305C7.35305 13.5 7.05305 13.5 7.05305 13.65L5.70305 15H2.25305C1.05305 15 0.00305176 13.95 0.00305176 12.75V2.25C0.00305176 1.05 1.05305 0 2.25305 0H12.7531C13.9531 0 15.0031 1.05 15.0031 2.25Z"/>
    <path d="M15.003 18.75V20.25H9.003C7.803 20.25 6.753 19.2 6.753 18V16.05L4.503 18.3L3.453 17.25L5.703 15L7.053 13.65C7.053 13.5 7.353 13.5 7.503 13.5C7.653 13.5 7.953 13.5 7.953 13.65L9.303 15L11.553 17.25L10.503 18.3L8.253 16.05V18C8.253 18.45 8.553 18.75 9.003 18.75H15.003Z"/>
  </symbol>
  <symbol id="icon-descendants" viewBox="0 0 24 24">
    <path d="M2.25598 9L6.75598 9C7.95598 9 9.00598 7.95 9.00598 6.75L9.00598 2.25C9.00598 1.05 7.95598 -9.17939e-08 6.75598 -1.96701e-07L2.25598 -5.90104e-07C1.05598 -6.95011e-07 0.00598214 1.05 0.00598204 2.25L0.00598164 6.75C0.00598154 7.95 1.05598 9 2.25598 9ZM1.50598 2.25C1.50598 1.8 1.80598 1.5 2.25598 1.5L6.75598 1.5C7.20598 1.5 7.50598 1.8 7.50598 2.25L7.50598 6.75C7.50598 7.2 7.20598 7.5 6.75598 7.5L2.25598 7.5C1.80598 7.5 1.50598 7.2 1.50598 6.75L1.50598 2.25Z"/>
    <path d="M11.706 20.7L11.706 12.3C11.706 11.94 11.946 11.7 12.306 11.7L20.706 11.7C21.066 11.7 21.306 11.94 21.306 12.3L21.306 20.7C21.306 21.06 21.066 21.3 20.706 21.3L12.306 21.3C11.946 21.3 11.706 21.06 11.706 20.7Z"/>
    <path d="M9.00598 21.75L9.00598 11.25C9.00598 10.05 10.056 9 11.256 9L14.706 9L16.056 10.35C16.056 10.5 16.356 10.5 16.506 10.5L11.256 10.5C10.806 10.5 10.506 10.8 10.506 11.25L10.506 21.75C10.506 22.2 10.806 22.5 11.256 22.5L21.756 22.5C22.206 22.5 22.506 22.2 22.506 21.75L22.506 11.25C22.506 10.8 22.206 10.5 21.756 10.5L16.506 10.5C16.656 10.5 16.956 10.5 16.956 10.35L18.306 9L21.756 9C22.956 9 24.006 10.05 24.006 11.25L24.006 21.75C24.006 22.95 22.956 24 21.756 24L11.256 24C10.056 24 9.00598 22.95 9.00598 21.75Z"/>
    <path d="M9.00603 5.25L9.00603 3.75L15.006 3.75C16.206 3.75 17.256 4.8 17.256 6L17.256 7.95L19.506 5.7L20.556 6.75L18.306 9L16.956 10.35C16.956 10.5 16.656 10.5 16.506 10.5C16.356 10.5 16.056 10.5 16.056 10.35L14.706 9L12.456 6.75L13.506 5.7L15.756 7.95L15.756 6C15.756 5.55 15.456 5.25 15.006 5.25L9.00603 5.25Z"/>
  </symbol>

  <!-- Sidebar -->
  <symbol id="icon-subject" viewBox="0 0 16 16">
    <path d="M6.5 0h-5C.7 0 0 .7 0 1.5v2C0 4.3.7 5 1.5 5h5C7.3 5 8 4.3 8 3.5v-2C8 .7 7.3 0 6.5 0zM7 3.5c0 .3-.2.5-.5.5h-5c-.3 0-.5-.2-.5-.5v-2c0-.3.2-.5.5-.5h5c.3 0 .5.2.5.5v2z"/>
    <path class="blue" opacity=".75" d="M7 1.5v2c0 .3-.2.5-.5.5h-5c-.3 0-.5-.2-.5-.5v-2c0-.3.2-.5.5-.5h5c.3 0 .5.2.5.5z"/>
    <path opacity=".75" d="M14.5 0h-5C8.7 0 8 .7 8 1.5v2C8 4.3 8.7 5 9.5 5h5c.8 0 1.5-.7 1.5-1.5v-2c0-.8-.7-1.5-1.5-1.5zm.5 3.5c0 .3-.2.5-.5.5h-5c-.3 0-.5-.2-.5-.5v-2c0-.3.2-.5.5-.5h5c.3 0 .5.2.5.5v2z"/>
    <path opacity=".5" d="M6.5 5h-5C.7 5 0 5.7 0 6.5v2C0 9.3.7 10 1.5 10h5C7.3 10 8 9.3 8 8.5v-2C8 5.7 7.3 5 6.5 5zM7 8.5c0 .3-.2.5-.5.5h-5c-.3 0-.5-.2-.5-.5v-2c0-.3.2-.5.5-.5h5c.3 0 .5.2.5.5v2z"/>
  </symbol>

  <!-- Node properties -->
  <symbol id="icon-node-jump-subject" viewBox="0 0 24 24">
    <path d="M9.73669 12H3.79919C2.81357 12 2.01794 12.8375 2.01794 13.875V16.375C2.01794 17.4125 2.81357 18.25 3.79919 18.25H9.73669C10.7223 18.25 11.5179 17.4125 11.5179 16.375V13.875C11.5179 12.8375 10.7223 12 9.73669 12ZM10.3304 16.375C10.3304 16.5408 10.2679 16.6997 10.1565 16.8169C10.0452 16.9342 9.89417 17 9.73669 17H3.79919C3.64172 17 3.4907 16.9342 3.37935 16.8169C3.268 16.6997 3.20544 16.5408 3.20544 16.375V13.875C3.20544 13.5375 3.47857 13.25 3.79919 13.25H9.73669C10.0573 13.25 10.3304 13.5375 10.3304 13.875V16.375Z"/>
    <path fill-rule="evenodd" clip-rule="evenodd" d="M14.2992 12H20.2367C21.2223 12 22.0179 12.8375 22.0179 13.875V16.375C22.0179 17.4125 21.2223 18.25 20.2367 18.25H14.2992C13.3136 18.25 12.5179 17.4125 12.5179 16.375V13.875C12.5179 12.8375 13.3136 12 14.2992 12Z"/>
    <path d="M16.3929 6.375V8.55C15.2133 7.41219 13.6557 6.74909 12.0179 6.6875C8.76794 6.6875 6.60544 9.6375 6.51794 9.7625L6.14294 10.2625L7.15544 11L7.53044 10.5C7.54294 10.45 9.39294 7.925 12.0179 7.925C13.5179 7.925 14.7679 8.775 15.5679 9.4875H13.2679V10.7375H17.6429V6.375H16.3929Z"/>
  </symbol>
</svg>
