<svg xmlns="http://www.w3.org/2000/svg" viewBox="0 0 16 16">
  <path d="M16 8c0-.34-.03-.67-.07-1l-2.96-1.06 1.35-2.84c-.42-.53-.9-1-1.42-1.42l-2.84 1.35L9 .07C8.67.03 8.34 0 8 0s-.67.03-1 .07L5.94 3.03 3.1 1.68c-.53.4-1 .9-1.42 1.42l1.35 2.84L.07 7C.03 7.33 0 7.66 0 8s.03.67.07 1l2.96 1.06-1.35 2.84c.4.53.9 1 1.42 1.42l2.84-1.35L7 15.93c.33.04.66.07 1 .07s.67-.03 1-.07l1.06-2.96 2.84 1.35c.53-.42 1-.9 1.42-1.42l-1.35-2.84L15.93 9c.04-.33.07-.66.07-1zm-8 3c-1.66 0-3-1.34-3-3s1.34-3 3-3 3 1.34 3 3-1.34 3-3 3z"/>
</svg>
