<svg xmlns="http://www.w3.org/2000/svg" style="display: none;">
  <!-- Toolbar -->
  <symbol id="icon-add-computer" viewBox="0 0 24 24">
    <path fill-rule="evenodd" clip-rule="evenodd"
      d="M8.29289 21.7071C8.48043 21.8946 8.73478 22 9 22H9.5C9.75 22 10 21.9 10.2 21.71L13.9 18H20C20.5304 18 21.0391 17.7893 21.4142 17.4142C21.7893 17.0391 22 16.5304 22 16V4C22 3.46957 21.7893 2.96086 21.4142 2.58579C21.0391 2.21071 20.5304 2 20 2H4C2.9 2 2 2.89 2 4V16C2 16.5304 2.21071 17.0391 2.58579 17.4142C2.96086 17.7893 3.46957 18 4 18H8V21C8 21.2652 8.10536 21.5196 8.29289 21.7071ZM10 19.08V16H4V4H20V16H13.08L10 19.08ZM16.1329 13.2L11.976 6L7.8191 13.2H16.1329Z" />
  </symbol>
  <symbol id="icon-add-situation" viewBox="0 0 24 24">
    <path fill-rule="evenodd" clip-rule="evenodd"
      d="M8.29595 21.7071C8.48348 21.8946 8.73783 22 9.00305 22H9.50305C9.75305 22 10.0031 21.9 10.2031 21.71L13.9031 18H20.0031C20.5335 18 21.0422 17.7893 21.4173 17.4142C21.7923 17.0391 22.0031 16.5304 22.0031 16V4C22.0031 3.46957 21.7923 2.96086 21.4173 2.58579C21.0422 2.21071 20.5335 2 20.0031 2H4.00305C2.90305 2 2.00305 2.89 2.00305 4V16C2.00305 16.5304 2.21377 17.0391 2.58884 17.4142C2.96391 17.7893 3.47262 18 4.00305 18H8.00305V21C8.00305 21.2652 8.10841 21.5196 8.29595 21.7071ZM10.0031 19.08V16H4.00305V4H20.0031V16H13.0831L10.0031 19.08ZM12.5178 9.70549C12.3169 9.91647 12.0444 10.035 11.7602 10.035C11.6195 10.035 11.4802 10.0059 11.3502 9.94936C11.2202 9.89283 11.1021 9.80996 11.0026 9.70549C10.9031 9.60103 10.8242 9.47701 10.7704 9.34052C10.7165 9.20403 10.6888 9.05774 10.6888 8.91C10.6888 8.61163 10.8017 8.32548 11.0026 8.1145C11.2035 7.90353 11.4761 7.785 11.7602 7.785C12.0444 7.785 12.3169 7.90353 12.5178 8.1145C12.7188 8.32548 12.8317 8.61163 12.8317 8.91C12.8317 9.20837 12.7188 9.49452 12.5178 9.70549ZM13.8815 6.68261C13.3189 6.09187 12.5559 5.76 11.7602 5.76C10.9646 5.76 10.2015 6.09187 9.63891 6.68261C9.0763 7.27335 8.76023 8.07457 8.76023 8.91C8.76023 11.2725 11.7602 14.76 11.7602 14.76C11.7602 14.76 14.7602 11.2725 14.7602 8.91C14.7602 8.07457 14.4442 7.27335 13.8815 6.68261Z" />
  </symbol>
  <symbol id="icon-validate" viewBox="0 0 24 24">
    <path fill-rule="evenodd" clip-rule="evenodd"
      d="M9.42564 2C11.3958 2 13.2853 2.78265 14.6784 4.17578C16.0716 5.56891 16.8542 7.45839 16.8542 9.42857C16.8542 11.2686 16.1799 12.96 15.0714 14.2629L15.3799 14.5714H16.2828L21.9971 20.2857L20.2828 22L14.5685 16.2857V15.3829L14.2599 15.0743C12.9571 16.1829 11.2656 16.8571 9.42564 16.8571C7.45546 16.8571 5.56598 16.0745 4.17285 14.6814C2.77972 13.2882 1.99707 11.3988 1.99707 9.42857C1.99707 7.45839 2.77972 5.56891 4.17285 4.17578C5.56598 2.78265 7.45546 2 9.42564 2ZM9.42564 4.28571C6.5685 4.28571 4.28278 6.57143 4.28278 9.42857C4.28278 12.2857 6.5685 14.5714 9.42564 14.5714C12.2828 14.5714 14.5685 12.2857 14.5685 9.42857C14.5685 6.57143 12.2828 4.28571 9.42564 4.28571Z M13.3285 7.67696L11.8979 6.24636L8.13833 10.0097L6.85216 8.71976L5.42139 10.1505L8.13815 12.8673L13.3285 7.67696Z" />
  </symbol>
</svg>
