<svg xmlns="http://www.w3.org/2000/svg" style="display: none;">
  <defs>
    <style>
      .red { fill: #ce192a; }
      .blue { fill: #00aeef; }
      .yellow { fill: #F59341; }
      .purple { fill: #662d91; }
      .green { fill: #2b8000; }
      .teal { fill: #2b8090; }
      .skin { fill: #b38659; }
      .white { fill: white; }
    </style>
  </defs>
  <!-- Toolbar -->
  <symbol id="icon-add-subject" viewBox="0 0 16 16">
    <path d="M6.5 0h-5C.7 0 0 .7 0 1.5v2C0 4.3.7 5 1.5 5h5C7.3 5 8 4.3 8 3.5v-2C8 .7 7.3 0 6.5 0zM7 3.5c0 .3-.2.5-.5.5h-5c-.3 0-.5-.2-.5-.5v-2c0-.3.2-.5.5-.5h5c.3 0 .5.2.5.5v2z"/>
    <path opacity=".25" d="M7 1.5v2c0 .3-.2.5-.5.5h-5c-.3 0-.5-.2-.5-.5v-2c0-.3.2-.5.5-.5h5c.3 0 .5.2.5.5z"/>
    <path opacity=".75" d="M14.5 0h-5C8.7 0 8 .7 8 1.5v2C8 4.3 8.7 5 9.5 5h5c.8 0 1.5-.7 1.5-1.5v-2c0-.8-.7-1.5-1.5-1.5zm.5 3.5c0 .3-.2.5-.5.5h-5c-.3 0-.5-.2-.5-.5v-2c0-.3.2-.5.5-.5h5c.3 0 .5.2.5.5v2z"/>
    <path opacity=".5" d="M6.5 5h-5C.7 5 0 5.7 0 6.5v2C0 9.3.7 10 1.5 10h5C7.3 10 8 9.3 8 8.5v-2C8 5.7 7.3 5 6.5 5zM7 8.5c0 .3-.2.5-.5.5h-5c-.3 0-.5-.2-.5-.5v-2c0-.3.2-.5.5-.5h5c.3 0 .5.2.5.5v2z"/>

    <path class="blue" d="M16 13h-2v-2h-1v2h-2v1h2v2h1v-2h2z"/>
  </symbol>
  <symbol id="icon-add-player" viewBox="0 0 16 16">
    <path d="M16 3.5v5c0 .95-.38 1.81-1 2.44V10h-.5c.31-.41.5-.94.5-1.5v-5A2.5 2.5 0 0 0 12.5 1h-9A2.5 2.5 0 0 0 1 3.5v5A2.5 2.5 0 0 0 3.5 11h2c.28 0 .5.22.5.5v2.79l3.15-3.14c.09-.1.22-.15.35-.15H12v1H9.71l-3.86 3.85a.47.47 0 0 1-.35.15c-.06 0-.13-.01-.19-.04A.499.499 0 0 1 5 15.5V12H3.5C1.57 12 0 10.43 0 8.5v-5C0 1.57 1.57 0 3.5 0h9C14.43 0 16 1.57 16 3.5z"/>
    <path class="blue" opacity=".1" d="M12.5 1h-9A2.5 2.5 0 0 0 1 3.5v5A2.5 2.5 0 0 0 3.5 11h2c.28 0 .5.22.5.5v2.79l3.15-3.14c.09-.1.22-.15.35-.15H12v-1h2.5c.31-.41.5-.94.5-1.5v-5A2.5 2.5 0 0 0 12.5 1zM12 9.5c0 .28-.22.5-.5.5h-7c-.28 0-.5-.22-.5-.5V8.25c0-1.29.89-2.37 2.09-2.66v-.01C6.03 5.4 6 5.2 6 5V4c0-1.1.9-2 2-2s2 .9 2 2v1c0 .2-.03.4-.09.58v.01c1.2.29 2.09 1.37 2.09 2.66V9.5z"/>
    <path class="blue" opacity=".25" d="M11 8.25V9h-1V8c0-.28-.22-.5-.5-.5S9 7.72 9 8v1H7V8c0-.28-.22-.5-.5-.5S6 7.72 6 8v1H5v-.75c0-.94.76-1.72 1.69-1.74.35.31.81.49 1.31.49s.96-.18 1.31-.49c.93.02 1.69.8 1.69 1.74z"/>
    <path class="blue" opacity=".75" d="M12 8.25V9.5c0 .28-.22.5-.5.5h-7c-.28 0-.5-.22-.5-.5V8.25c0-1.29.89-2.37 2.09-2.66.11.36.32.68.6.92-.93.02-1.69.8-1.69 1.74V9h1V8c0-.28.22-.5.5-.5s.5.22.5.5v1h2V8c0-.28.22-.5.5-.5s.5.22.5.5v1h1v-.75c0-.94-.76-1.72-1.69-1.74.28-.24.49-.56.6-.92 1.2.29 2.09 1.37 2.09 2.66z"/>
    <path class="blue" d="M8 2c-1.1 0-2 .9-2 2v1c0 .2.03.4.09.58v.01c.11.36.32.68.6.92.35.31.81.49 1.31.49s.96-.18 1.31-.49c.28-.24.49-.56.6-.92v-.01C9.97 5.4 10 5.2 10 5V4c0-1.1-.9-2-2-2zm1 3c0 .18-.05.35-.14.5-.17.3-.49.5-.86.5s-.69-.2-.86-.5A.966.966 0 0 1 7 5V4c0-.55.45-1 1-1s1 .45 1 1v1z"/>
    <path class="blue" opacity=".25" d="M9 4v1c0 .18-.05.35-.14.5-.17.3-.49.5-.86.5s-.69-.2-.86-.5A.966.966 0 0 1 7 5V4c0-.55.45-1 1-1s1 .45 1 1z"/>

    <path class="blue" d="M16 13h-2v-2h-1v2h-2v1h2v2h1v-2h2z"/>
  </symbol>
  <symbol id="icon-add-computer" viewBox="0 0 16 16">
    <path class="red" opacity=".1" d="M15 1v9h-3V7c0-.83-.67-1.5-1.5-1.5H10v-2C10 2.67 9.33 2 8.5 2h-1C6.67 2 6 2.67 6 3.5v2h-.5C4.67 5.5 4 6.17 4 7v3h8v1H9.5c-.28 0-.5.22-.5.5v2.79l-3.15-3.14A.47.47 0 0 0 5.5 11H1V1h14z"/>
    <path class="red" opacity=".25" d="M11 7v2h-1V7.5H9V9H7V7.5H6V9H5V7c0-.28.22-.5.5-.5h.89c.27.31.67.5 1.11.5h1c.44 0 .84-.19 1.11-.5h.89c.28 0 .5.22.5.5z"/>
    <path d="M16 .5v11c0 .28-.22.5-.5.5H15V1H1v10h4.5c.13 0 .26.05.35.15L9 14.29V11.5c0-.28.22-.5.5-.5H12v1h-2v3.5c0 .2-.12.38-.31.46-.06.03-.13.04-.19.04a.47.47 0 0 1-.35-.15L5.29 12H.5c-.28 0-.5-.22-.5-.5V.5C0 .22.22 0 .5 0h15c.28 0 .5.22.5.5z"/>
    <path class="red" opacity=".75" d="M12 7v3H4V7c0-.83.67-1.5 1.5-1.5H6c0 .39.15.74.39 1H5.5c-.28 0-.5.22-.5.5v2h1V7.5h1V9h2V7.5h1V9h1V7c0-.28-.22-.5-.5-.5h-.89c.24-.26.39-.61.39-1h.5c.83 0 1.5.67 1.5 1.5z"/>
    <path class="red" d="M8.5 2h-1C6.67 2 6 2.67 6 3.5v2c0 .39.15.74.39 1 .27.31.67.5 1.11.5h1c.44 0 .84-.19 1.11-.5.24-.26.39-.61.39-1v-2C10 2.67 9.33 2 8.5 2zM9 5.5c0 .28-.22.5-.5.5h-1c-.28 0-.5-.22-.5-.5v-2c0-.28.22-.5.5-.5h1c.28 0 .5.22.5.5v2z"/>
    <path class="red" opacity=".25" d="M9 3.5v2c0 .28-.22.5-.5.5h-1c-.28 0-.5-.22-.5-.5v-2c0-.28.22-.5.5-.5h1c.28 0 .5.22.5.5z"/>

    <path class="blue" d="M16 13v1h-2v2h-1v-2h-2v-1h2v-2h1v2z"/>
  </symbol>
  <symbol id="icon-add-situation" viewBox="0 0 16 16">
    <path d="M16 0v12h-1V1H1v10h11v1H0V0z"/>
    <path class="yellow" opacity=".1" d="M1 1v10h11v-1h3V1H1zm9.98 4.31c0 .1-.01.2-.04.3C10.59 7.89 8.35 10 8 10S5.41 7.89 5.06 5.61c-.03-.1-.04-.2-.04-.3C5.01 5.21 5 5.1 5 5c0-1.66 1.34-3 3-3s3 1.34 3 3c0 .1-.01.21-.02.31z"/>
    <path class="yellow" opacity="1" d="M8 2C6.34 2 5 3.34 5 5c0 .1.01.21.02.31s.02.2.04.3C5.41 7.89 7.65 10 8 10s2.59-2.11 2.94-4.39c.02-.1.03-.2.04-.3.01-.1.02-.21.02-.31 0-1.66-1.34-3-3-3zm.09 4.49c-.03.01-.06.01-.09.01s-.06 0-.09-.01a1.485 1.485 0 0 1-1.38-1.77c.13-.7.74-1.22 1.47-1.22s1.34.52 1.47 1.22a1.485 1.485 0 0 1-1.38 1.77z"/>

    <path class="blue" d="M16 13v1h-2v2h-1v-2h-2v-1h2v-2h1v2z"/>
  </symbol>
  <symbol id="icon-child" viewBox="0 0 16 16">
    <path opacity=".75" d="M4.5 0h-3C.67 0 0 .67 0 1.5v3C0 5.33.67 6 1.5 6h3C5.33 6 6 5.33 6 4.5v-3C6 .67 5.33 0 4.5 0zM5 4.5c0 .28-.22.5-.5.5h-3c-.28 0-.5-.22-.5-.5v-3c0-.28.22-.5.5-.5h3c.28 0 .5.22.5.5v3z"/>
    <path opacity=".1" d="M5 1.5v3c0 .28-.22.5-.5.5h-3c-.28 0-.5-.22-.5-.5v-3c0-.28.22-.5.5-.5h3c.28 0 .5.22.5.5z"/>
    <path d="M15.91 15c-.15.43-.48.76-.91.91V15h.91zM16 7.5V12h-1V7.5c0-.28-.22-.5-.5-.5h-7c-.28 0-.5.22-.5.5v7c0 .28.22.5.5.5H12v1H7.5c-.83 0-1.5-.67-1.5-1.5v-7C6 6.67 6.67 6 7.5 6h7c.83 0 1.5.67 1.5 1.5z"/>
    <path opacity=".5" d="M6 10.5v1H4c-.83 0-1.5-.67-1.5-1.5V6h1v4c0 .28.22.5.5.5h2z"/>
    <path opacity=".25" d="M15 7.5V10h-3v2h-2v3H7.5c-.28 0-.5-.22-.5-.5v-7c0-.28.22-.5.5-.5h7c.28 0 .5.22.5.5z"/>

    <path class="blue" d="M16 13v1h-2v2h-1v-2h-2v-1h2v-2h1v2z"/>
  </symbol>
  <symbol id="icon-notepad" viewBox="0 0 16 16">
    <path d="M0 0v16h10.41l.3-.29 5-5 .29-.3V0H0zm10 15v-5h5l-5 5zm5-6h-5c-.55 0-1 .45-1 1v5H1V1h14v8z"/>
    <path class="yellow" opacity=".05" d="M15 10l-5 5v-5z"/>
    <path class="yellow" opacity=".1" d="M1 1h14v1H1zM1 3v12h8v-5c0-.55.45-1 1-1h5V3H1zm7 4H2V6h6v1zm6-2H2V4h12v1z"/>
    <path class="yellow" opacity=".25" d="M1 2h14v1H1z"/>
    <path class="yellow" opacity=".75" d="M2 4h12v1H2zM2 6h6v1H2z"/>
  </symbol>
  <symbol id="icon-delete" viewBox="0 0 16 16">
    <path d="M14 3h-.5v-.75c0-.69-.56-1.25-1.25-1.25h-8.5c-.69 0-1.25.56-1.25 1.25V3H2c-.28 0-.5.22-.5.5s.22.5.5.5h1v.05l.5 11c.03.53.47.95 1 .95h7c.53 0 .97-.42 1-.95L13 4.12V4h1c.28 0 .5-.22.5-.5S14.28 3 14 3zm-2.5 12h-7L4 4h8l-.5 11zm1-12.12h-9v-.63c0-.14.11-.25.25-.25h8.5c.14 0 .25.11.25.25v.63z"/>
    <path opacity=".25" d="M12.5 2.25v.63h-9v-.63c0-.14.11-.25.25-.25h8.5c.14 0 .25.11.25.25zM4 4l.5 11h7L12 4H4zm2.5 9.5c0 .28-.22.5-.5.5s-.5-.22-.5-.5v-8c0-.28.22-.5.5-.5s.5.22.5.5v8zm2 0c0 .28-.22.5-.5.5s-.5-.22-.5-.5v-8c0-.28.22-.5.5-.5s.5.22.5.5v8zm2 0c0 .28-.22.5-.5.5s-.5-.22-.5-.5v-8c0-.28.22-.5.5-.5s.5.22.5.5v8z"/>
    <path d="M6.5 5.5v8c0 .28-.22.5-.5.5s-.5-.22-.5-.5v-8c0-.28.22-.5.5-.5s.5.22.5.5zM8.5 5.5v8c0 .28-.22.5-.5.5s-.5-.22-.5-.5v-8c0-.28.22-.5.5-.5s.5.22.5.5zM10.5 5.5v8c0 .28-.22.5-.5.5s-.5-.22-.5-.5v-8c0-.28.22-.5.5-.5s.5.22.5.5z"/>
    <path opacity=".75" d="M9 .75V1H7V.75c0-.41.34-.75.75-.75h.5c.41 0 .75.34.75.75z"/>
  </symbol>
  <symbol id="icon-copy" viewBox="0 0 16 16">
    <path opacity=".75" d="M13.85 2.65l-2.5-2.5-.14-.15H4v3h1V1h5.5v2c0 .28.22.5.5.5h2V12h-2v1h3V2.79l-.15-.14zM11.5 2.5v-.79l.79.79h-.79z"/>
    <path d="M10.85 5.65l-2.5-2.5L8.21 3H1v13h10V5.79l-.15-.14zM8.5 4.71l.79.79H8.5v-.79zM10 15H2V4h5.5v2c0 .28.22.5.5.5h2V15z"/>
  </symbol>
  <symbol id="icon-cut" viewBox="0 0 16 16">
    <path opacity=".5" d="M16 14h-3L8.5 9.5l.71-.7.09-.09L10 8z"/>
    <path opacity=".25" d="M13 2L8.5 6.5l-.7.71-.09.09L7 8l.71.71.09.09.7.7.71-.7.09-.09L10 8l6-6h-3zM8.9 8.31l-.09.09c-.08.06-.19.1-.31.1s-.23-.04-.31-.1l-.09-.09C8.04 8.23 8 8.12 8 8s.04-.23.1-.31l.09-.09c.08-.06.19-.1.31-.1s.23.04.31.1l.09.09c.06.08.1.19.1.31s-.04.23-.1.31z"/>
    <path class="red" opacity=".75" d="M6.76 4.76c.16-.39.24-.82.24-1.26C7 1.57 5.43 0 3.5 0S0 1.57 0 3.5 1.57 7 3.5 7c.71 0 1.37-.21 1.92-.58L7 8l.71-.7.09-.09.7-.71-1.74-1.74zM5.95 4c-.08.37-.23.71-.45 1-.01.02-.02.04-.04.05-.21.26-.46.48-.76.65h-.01A2.5 2.5 0 1 1 3.5 1a2.5 2.5 0 0 1 2.45 3z"/>
    <path class="red" d="M8.5 9.5l-.7-.7-.09-.09L7 8 5.42 9.58C4.87 9.21 4.21 9 3.5 9 1.57 9 0 10.57 0 12.5S1.57 16 3.5 16 7 14.43 7 12.5c0-.44-.08-.87-.24-1.26L8.5 9.5zm-5 5.5a2.5 2.5 0 0 1 0-5c.44 0 .85.11 1.2.3.3.17.55.39.76.65.02.01.03.03.04.05a2.527 2.527 0 0 1 .5 1.5A2.5 2.5 0 0 1 3.5 15z"/>
  </symbol>
  <symbol id="icon-paste" viewBox="0 0 16 16">
    <path opacity=".75" d="M14 3v11c0 1.1-.9 2-2 2H4c-1.1 0-2-.9-2-2V3c0-1.1.9-2 2-2v1c-.55 0-1 .45-1 1v11c0 .55.45 1 1 1h8c.55 0 1-.45 1-1V3c0-.55-.45-1-1-1V1c1.1 0 2 .9 2 2z"/>
    <path class="yellow" opacity=".75" d="M8 5H4V2h1.55A2.503 2.503 0 0 0 6 4c.15.19.32.36.51.5.41.32.93.5 1.49.5zM12 2v3H8a2.503 2.503 0 0 0 2.5-2.5c0-.17-.02-.34-.05-.5H12z"/>
    <path class="yellow" d="M12 1v1h-1.55c-.04-.18-.09-.34-.16-.5-.07-.18-.17-.35-.29-.5h2zM6 1c-.12.15-.22.32-.29.5-.07.16-.12.32-.16.5H4V1h2z"/>
    <path class="yellow" opacity=".9" d="M10.45 2c-.04-.18-.09-.34-.16-.5-.07-.18-.17-.35-.29-.5-.46-.61-1.18-1-2-1S6.46.39 6 1c-.12.15-.22.32-.29.5-.07.16-.12.32-.16.5A2.503 2.503 0 0 0 6 4c.15.19.32.36.51.5.41.32.93.5 1.49.5a2.503 2.503 0 0 0 2.5-2.5c0-.17-.02-.34-.05-.5zM8 4c-.83 0-1.5-.67-1.5-1.5 0-.18.03-.34.09-.5.06-.19.16-.36.3-.5.27-.31.67-.5 1.11-.5s.84.19 1.11.5c.14.14.24.31.3.5.06.16.09.32.09.5C9.5 3.33 8.83 4 8 4z"/>
  </symbol>
  <symbol id="icon-arrange" viewBox="0 0 16 16">
    <path opacity=".5" d="M13 5v2h-1V6H4v1H3V5h4.5V4h1v1zM3 11h1v1H3zM12 11h1v1h-1z"/>
    <path class="red" d="M10.5 0h-5c-.55 0-1 .45-1 1v2c0 .55.45 1 1 1h5c.55 0 1-.45 1-1V1c0-.55-.45-1-1-1zm0 3h-5V1h5v2z"/>
    <path class="blue" d="M15 7h-5c-.55 0-1 .45-1 1v2c0 .55.45 1 1 1h5c.55 0 1-.45 1-1V8c0-.55-.45-1-1-1zm0 3h-5V8h5v2z"/>
    <path class="blue" d="M6 7H1c-.55 0-1 .45-1 1v2c0 .55.45 1 1 1h5c.55 0 1-.45 1-1V8c0-.55-.45-1-1-1zm0 3H1V8h5v2z"/>
    <path class="red" d="M6 12H1c-.55 0-1 .45-1 1v2c0 .55.45 1 1 1h5c.55 0 1-.45 1-1v-2c0-.55-.45-1-1-1zm0 3H1v-2h5v2z"/>
    <path class="red" d="M15 12h-5c-.55 0-1 .45-1 1v2c0 .55.45 1 1 1h5c.55 0 1-.45 1-1v-2c0-.55-.45-1-1-1zm0 3h-5v-2h5v2z"/>
  </symbol>
  <symbol id="icon-ancestors" viewBox="0 0 16 16">
    <path d="M14.5 10h-3c-.8 0-1.5.7-1.5 1.5v3c0 .8.7 1.5 1.5 1.5h3c.8 0 1.5-.7 1.5-1.5v-3c0-.8-.7-1.5-1.5-1.5zm.5 4.5c0 .3-.2.5-.5.5h-3c-.3 0-.5-.2-.5-.5v-3c0-.3.2-.5.5-.5h3c.3 0 .5.2.5.5v3z" opacity=".5"/>
    <path d="M15 11.5v3c0 .3-.2.5-.5.5h-3c-.3 0-.5-.2-.5-.5v-3c0-.3.2-.5.5-.5h3c.3 0 .5.2.5.5z" opacity="0"/>
    <path d="M9 1.5v7c0 .3-.2.5-.5.5h-7c-.3 0-.5-.2-.5-.5v-7c0-.3.2-.5.5-.5h7c.3 0 .5.2.5.5z" opacity=".25"/>
    <path d="M10 1.5v7c0 .8-.7 1.5-1.5 1.5H6.2l-.9-.9C5.3 9 5.1 9 5 9h3.5c.3 0 .5-.2.5-.5v-7c0-.3-.2-.5-.5-.5h-7c-.3 0-.5.2-.5.5v7c0 .3.2.5.5.5H5c-.1 0-.3 0-.3.1l-.9.9H1.5C.7 10 0 9.3 0 8.5v-7C0 .7.7 0 1.5 0h7c.8 0 1.5.7 1.5 1.5z" opacity=".75"/>
    <path d="M10 12.5v1H6c-.8 0-1.5-.7-1.5-1.5v-1.3L3 12.2l-.7-.7L3.8 10l.9-.9c0-.1.2-.1.3-.1s.3 0 .3.1l.9.9 1.5 1.5-.7.7-1.5-1.5V12c0 .3.2.5.5.5h4z"/>
  </symbol>
  <symbol id="icon-descendants" viewBox="0 0 16 16">
    <path d="M1.5 6h3C5.3 6 6 5.3 6 4.5v-3C6 .7 5.3 0 4.5 0h-3C.7 0 0 .7 0 1.5v3C0 5.3.7 6 1.5 6zM1 1.5c0-.3.2-.5.5-.5h3c.3 0 .5.2.5.5v3c0 .3-.2.5-.5.5h-3c-.3 0-.5-.2-.5-.5v-3z" opacity=".5"/>
    <path d="M15 11.5v3c0 .3-.2.5-.5.5h-3c-.3 0-.5-.2-.5-.5v-3c0-.3.2-.5.5-.5h3c.3 0 .5.2.5.5z" opacity="0"/>
    <path d="M7 14.5v-7c0-.3.2-.5.5-.5h7c.3 0 .5.2.5.5v7c0 .3-.2.5-.5.5h-7c-.3 0-.5-.2-.5-.5z" opacity=".25"/>
    <path d="M6 14.5v-7C6 6.7 6.7 6 7.5 6h2.3l.9.9c0 .1.2.1.3.1H7.5c-.3 0-.5.2-.5.5v7c0 .3.2.5.5.5h7c.3 0 .5-.2.5-.5v-7c0-.3-.2-.5-.5-.5H11c.1 0 .3 0 .3-.1l.9-.9h2.3c.8 0 1.5.7 1.5 1.5v7c0 .8-.7 1.5-1.5 1.5h-7c-.8 0-1.5-.7-1.5-1.5z" opacity=".75"/>
    <path d="M6 3.5v-1h4c.8 0 1.5.7 1.5 1.5v1.3L13 3.8l.7.7L12.2 6l-.9.9c0 .1-.2.1-.3.1s-.3 0-.3-.1L9.8 6 8.3 4.5l.7-.7 1.5 1.5V4c0-.3-.2-.5-.5-.5H6z"/>
  </symbol>
  <symbol id="icon-colors" viewBox="0 0 16 16">
    <path d="M15 0H3.75c-.27 0-.52.11-.71.29L.29 3.04c-.39.39-.39 1.03 0 1.42l2.75 2.75c.19.18.44.29.71.29H15c.55 0 1-.45 1-1V1c0-.55-.45-1-1-1zm0 6.5H3.75L1 3.75 3.75 1H15v5.5z"/>
    <path opacity="0" d="M3.75 1L1 3.75 3.75 6.5H15V1H3.75zM4 4.38c-.41 0-.75-.34-.75-.76 0-.41.34-.74.75-.74s.75.33.75.74c0 .42-.34.76-.75.76z"/>
    <path d="M15 8.5H3.75c-.27 0-.52.11-.71.29L.29 11.54c-.39.39-.39 1.03 0 1.42l2.75 2.75c.19.18.44.29.71.29H15c.55 0 1-.45 1-1V9.5c0-.55-.45-1-1-1zm0 6.5H3.75L1 12.25 3.75 9.5H15V15z"/>
    <path opacity="0" d="M3.75 9.5L1 12.25 3.75 15H15V9.5H3.75zM4 13c-.41 0-.75-.34-.75-.75s.34-.75.75-.75.75.34.75.75S4.41 13 4 13z"/>
    <circle cx="4" cy="12.25" r=".75"/>
    <path d="M4.75 3.62c0 .42-.34.76-.75.76s-.75-.34-.75-.76c0-.41.34-.74.75-.74s.75.33.75.74z"/>
  </symbol>
  <symbol id="icon-validate" viewBox="0 0 16 16">
    <path opacity=".75" d="M10.5 0A5.51 5.51 0 0 0 5 5.5c0 1.16.36 2.24.97 3.12a5.9 5.9 0 0 0 1.41 1.41c.88.61 1.96.97 3.12.97 3.03 0 5.5-2.47 5.5-5.5S13.53 0 10.5 0zm0 10C8.01 10 6 7.99 6 5.5S8.01 1 10.5 1 15 3.01 15 5.5 12.99 10 10.5 10z"/>
    <path opacity=".1" d="M10.5 1C8.01 1 6 3.01 6 5.5S8.01 10 10.5 10 15 7.99 15 5.5 12.99 1 10.5 1zM7.67 2.67c.76-.75 1.76-1.17 2.83-1.17.28 0 .5.22.5.5s-.22.5-.5.5c-.8 0-1.55.31-2.12.88-.1.1-.23.15-.35.15-.13 0-.26-.05-.36-.15a.513.513 0 0 1 0-.71zM6.62 4.5c0-.28.23-.5.5-.5.28 0 .5.22.5.5s-.22.5-.5.5c-.27 0-.5-.22-.5-.5zm3.23 3.35c-.09.1-.22.15-.35.15s-.26-.05-.35-.15l-2-2 .7-.7L9.5 6.79l3.65-3.64.7.7-4 4z"/>
    <path class="blue" d="M13.85 3.85l-4 4c-.09.1-.22.15-.35.15s-.26-.05-.35-.15l-2-2 .7-.7L9.5 6.79l3.65-3.64.7.7z"/>
    <path opacity=".5" d="M7.38 10.03l-1.32 1.33-1.41-1.41 1.32-1.33a5.9 5.9 0 0 0 1.41 1.41z"/>
    <path d="M6.1 11.4L4.6 9.9c-.19-.2-.51-.2-.7 0L.15 13.65c-.2.19-.2.51 0 .7l1.5 1.5c.09.1.22.15.35.15s.26-.05.35-.15L6.1 12.1c.2-.19.2-.51 0-.7zM2 14.79L1.21 14l3.04-3.04.79.79L2 14.79z"/>
    <path opacity=".5" d="M1.21 14l3.04-3.04.789.79-3.04 3.04z"/>
  </symbol>
  <symbol id="icon-save" viewBox="0 0 16 16">
    <path class="blue" d="M8 16A8 8 0 0 1 2.34 2.34a.51.51 0 0 1 .71 0 .5.5 0 0 1 0 .71A7 7 0 1 0 15 8a7 7 0 0 0-2-4.95.5.5 0 0 1 0-.71.51.51 0 0 1 .71 0A8 8 0 0 1 8 16z"/>
    <path d="M12.35 7.15a.48.48 0 0 0-.7 0L8.5 10.29V.5a.5.5 0 0 0-1 0v9.79L4.35 7.15a.49.49 0 0 0-.7.7l4 4a.36.36 0 0 0 .16.11.47.47 0 0 0 .38 0 .36.36 0 0 0 .16-.11l4-4a.48.48 0 0 0 0-.7z"/>
  </symbol>
  <symbol id="icon-palette" viewBox="0 0 16 16">
    <path d="M15.8 6.5v-.2C15 2.6 11.7 0 8 0 3.6 0 0 3.6 0 8s3.6 8 8 8c.8 0 1.5-.7 1.5-1.5 0-.9-.7-1.6-1.5-1.6-.3 0-.5-.3-.5-.6s.3-.5.5-.5h3.8c2.3 0 4.2-1.8 4.2-4.1 0-.4-.1-.8-.2-1.2zm-4 4.3H8c-.8 0-1.5.7-1.5 1.5 0 .9.7 1.6 1.5 1.6.3 0 .5.3.5.6s-.2.5-.5.5c-3.9 0-7-3.1-7-7s3.1-7 7-7c3.3 0 6.2 2.3 6.9 5.6 0 .4.1.7.1 1.1-.1 1.7-1.5 3.1-3.2 3.1z"/>
    <path class="yellow" opacity=".1" d="M14.9 6.6C14.2 3.3 11.3 1 8 1 4.1 1 1 4.1 1 8s3.1 7 7 7c.3 0 .5-.3.5-.5 0-.3-.2-.6-.5-.6-.8 0-1.5-.7-1.5-1.6 0-.8.7-1.5 1.5-1.5h3.8c1.8 0 3.2-1.4 3.2-3.1 0-.4-.1-.7-.1-1.1zM4 9c-.8 0-1.5-.7-1.5-1.5S3.2 6 4 6s1.5.7 1.5 1.5S4.8 9 4 9zm2-3.5c-.8 0-1.5-.7-1.5-1.5S5.2 2.5 6 2.5s1.5.7 1.5 1.5S6.8 5.5 6 5.5zM8.5 4c0-.8.7-1.5 1.5-1.5s1.5.7 1.5 1.5-.7 1.5-1.5 1.5S8.5 4.8 8.5 4zM12 9c-.8 0-1.5-.7-1.5-1.5S11.2 6 12 6s1.5.7 1.5 1.5S12.8 9 12 9z"/>
    <circle class="red" opacity=".75" cx="4" cy="7.5" r="1.5"/>
    <circle class="yellow" opacity=".75" cx="6" cy="4" r="1.5"/>
    <circle class="blue" opacity=".75" cx="10" cy="4" r="1.5"/>
    <circle class="purple" opacity=".75" cx="12" cy="7.5" r="1.5"/>
  </symbol>

  <symbol id="icon-properties" viewBox="0 0 16 16">
    <path d="M14.95 2.5a2.5 2.5 0 1 0-4.9 1 2.5 2.5 0 0 0 4.9-1zm-2.45 2a1.5 1.5 0 1 1 0-3 1.5 1.5 0 0 1 0 3z"/>
    <circle class="purple" opacity=".5" cx="12.5" cy="3" r="1.5"/>
    <path d="M12.45 12.5a2.5 2.5 0 1 0-4.9 1 2.5 2.5 0 0 0 4.9-1zm-2.45 2a1.5 1.5 0 1 1 0-3 1.5 1.5 0 0 1 0 3z"/>
    <circle class="purple" opacity=".5" cx="10" cy="13" r="1.5"/>
    <path d="M5.95 7.5a2.5 2.5 0 1 0-4.9 1 2.5 2.5 0 0 0 4.9-1zm-2.45 2a1.5 1.5 0 1 1 0-3 1.5 1.5 0 0 1 0 3z"/>
    <circle class="purple" opacity=".5" cx="3.5" cy="8" r="1.5"/>
    <path opacity=".75" d="M10 3c0 .17.02.34.05.5H.5A.5.5 0 0 1 0 3c0-.28.22-.5.5-.5h9.55c-.03.16-.05.33-.05.5zM16 8a.5.5 0 0 1-.5.5H5.95a2.73 2.73 0 0 0 0-1h9.55c.28 0 .5.22.5.5zM7.5 13c0 .17.02.34.05.5H.5A.5.5 0 0 1 0 13c0-.28.22-.5.5-.5h7.05c-.03.16-.05.33-.05.5zM16 13a.5.5 0 0 1-.5.5h-3.05a2.73 2.73 0 0 0 0-1h3.05c.28 0 .5.22.5.5zM16 3a.5.5 0 0 1-.5.5h-.55a2.73 2.73 0 0 0 0-1h.55c.28 0 .5.22.5.5zM1 8c0 .17.02.34.05.5H.5A.5.5 0 0 1 0 8c0-.28.22-.5.5-.5h.55c-.03.16-.05.33-.05.5z"/>
  </symbol>
  <symbol id="icon-character" viewBox="0 0 16 16">
    <path opacity=".75" d="M14.5 13v2.5a.5.5 0 0 1-.5.5H2a.5.5 0 0 1-.5-.5V13c0-2.23 1.13-4.2 2.85-5.38.13.31.31.6.52.87A5.46 5.46 0 0 0 2.5 13v2H4v-3c0-.28.22-.5.5-.5s.5.22.5.5v3h6v-3c0-.28.22-.5.5-.5s.5.22.5.5v3h1.5v-2a5.46 5.46 0 0 0-2.37-4.51c.21-.26.38-.55.51-.86A6.53 6.53 0 0 1 14.5 13z"/>
    <path class="skin" d="M8 0a4 4 0 0 0-4 4v2c0 .58.12 1.12.35 1.62a3.98 3.98 0 0 0 7.29.01c.24-.5.36-1.05.36-1.63V4a4 4 0 0 0-4-4zm3 6c0 .4-.08.78-.23 1.13A2.99 2.99 0 0 1 5 6V4c0-1.65 1.35-3 3-3s3 1.35 3 3v2z"/>
    <path class="purple" opacity=".25" d="M13.5 13v2H12v-3c0-.28-.22-.5-.5-.5s-.5.22-.5.5v3H5v-3c0-.28-.22-.5-.5-.5s-.5.22-.5.5v3H2.5v-2c0-1.87.94-3.53 2.37-4.51a3.98 3.98 0 0 0 6.26 0A5.46 5.46 0 0 1 13.5 13z"/>
    <path class="skin" opacity=".25" d="M8 1a3 3 0 0 0-3 3v2c0 .4.08.78.23 1.13a2.98 2.98 0 0 0 5.54 0c.15-.35.23-.73.23-1.13V4a3 3 0 0 0-3-3zM6.5 4.5H6a.5.5 0 0 1-.5-.5c0-.28.22-.5.5-.5h.5c.28 0 .5.22.5.5a.5.5 0 0 1-.5.5zm3.27 3.27l-.02.02c-.47.46-1.09.71-1.75.71a.5.5 0 0 1-.5-.5.5.5 0 0 1 .4-.49L8 7.5c.4 0 .78-.16 1.06-.44.19-.2.51-.19.71 0 .19.19.19.51 0 .71zM10 4.5H8.5V6c0 .28-.22.5-.5.5s-.5-.22-.5-.5V3.5H10c.28 0 .5.22.5.5a.5.5 0 0 1-.5.5z"/>
    <path class="skin" opacity=".75" d="M7 4a.5.5 0 0 1-.5.5H6a.5.5 0 0 1-.5-.5c0-.28.22-.5.5-.5h.5c.28 0 .5.22.5.5zM10.5 4a.5.5 0 0 1-.5.5H8.5V6c0 .28-.22.5-.5.5s-.5-.22-.5-.5V3.5H10c.28 0 .5.22.5.5z"/>
    <path class="skin" opacity=".5" d="M9.77 7.77l-.02.02c-.47.46-1.09.71-1.75.71a.5.5 0 0 1-.5-.5.5.5 0 0 1 .4-.49L8 7.5c.4 0 .78-.16 1.06-.44.19-.2.51-.19.71 0 .19.19.19.51 0 .71z"/>
  </symbol>
  <symbol id="icon-parameters" viewBox="0 0 16 16">
    <path d="M7 3.5v1H4.5V7h-1V4.5H1v-1h2.5V1h1v2.5zM9 11.5h6v1H9z"/>
    <path d="M15 0H9a1 1 0 0 0-1 1v6a1 1 0 0 0 1 1h6a1 1 0 0 0 1-1V1a1 1 0 0 0-1-1zm0 7H9V1h6v6z"/>
    <path class="blue" opacity=".75" d="M9 1v6h6V1H9zm5 5h-4V5h4v1zm0-3h-4V2h4v1z"/>
    <path d="M7 8H1a1 1 0 0 0-1 1v6a1 1 0 0 0 1 1h6a1 1 0 0 0 1-1V9a1 1 0 0 0-1-1zm0 7H1V9h6v6z"/>
    <path class="blue" opacity=".75" d="M1 9v6h6V9H1zm5 2l-2 2h2v1H2v-1l2-2H2v-1h4v1z"/>
    <path d="M6 10v1l-3 3H2v-1l3-3z"/>
  </symbol>
  <symbol id="icon-element-list" viewBox="0 0 16 16">
    <path d="M6 2.5h10v1H6zM6 7.5h10v1H6zM6 12.5h10v1H6z"/>
    <path class="blue" d="M3 2v2H1V2h2m.2021-1H.7979A.7979.7979 0 0 0 0 1.7979v2.4043C0 4.6428.3572 5 .7979 5h2.4043A.7978.7978 0 0 0 4 4.2021V1.7979A.7979.7979 0 0 0 3.2021 1z"/>
    <path class="red" d="M3 7v2H1V7h2m.2021-1H.7979A.7979.7979 0 0 0 0 6.7979v2.4043C0 9.6428.3572 10 .7979 10h2.4043A.7978.7978 0 0 0 4 9.2021V6.7979A.7979.7979 0 0 0 3.2021 6z"/>
    <path class="yellow" d="M3 12v2H1v-2h2m.2021-1H.7979A.7979.7979 0 0 0 0 11.7979v2.4043C0 14.6428.3572 15 .7979 15h2.4043A.7978.7978 0 0 0 4 14.2021v-2.4043A.7978.7978 0 0 0 3.2021 11z"/>
  </symbol>
  <symbol id="icon-item-analysis" viewBox="0 0 16 16">
    <path opacity=".75" d="M15.74 3.83v-.01c-.1-.31-.23-.61-.38-.89-.17-.33-.38-.64-.62-.93a5.17 5.17 0 00-.74-.74c-.29-.24-.6-.45-.93-.62C12.3.23 11.43 0 10.5 0 8.05 0 5.97 1.61 5.26 3.82v.01C5.09 4.36 5 4.91 5 5.5c0 .59.09 1.14.26 1.67v.01c.17.52.41 1 .71 1.44a5.9 5.9 0 001.41 1.41c.88.61 1.96.97 3.12.97 1.33 0 2.55-.47 3.5-1.26.38-.32.72-.68 1-1.09.32-.45.57-.94.74-1.47v-.01c.17-.53.26-1.08.26-1.67 0-.59-.09-1.14-.26-1.67zm-.85 2.67c-.08.35-.2.69-.36 1-.73 1.48-2.26 2.5-4.03 2.5S7.2 8.98 6.47 7.5c-.16-.31-.28-.65-.36-1-.07-.32-.11-.66-.11-1 0-.34.04-.68.11-1 .08-.35.2-.69.36-1A4.494 4.494 0 0113 1.76c.49.32.92.75 1.24 1.24.11.16.21.33.29.5.16.31.28.65.36 1 .07.32.11.66.11 1 0 .34-.04.68-.11 1z"/>
    <path opacity=".1" d="M8 4.5v2H6.11c-.07-.32-.11-.66-.11-1 0-.34.04-.68.11-1h.52c0 .28.22.5.5.5.27 0 .5-.22.5-.5H8zM15 5.5c0 .34-.04.68-.11 1H13v-2h1.89c.07.32.11.66.11 1zM14.53 7.5C13.8 8.98 12.27 10 10.5 10S7.2 8.98 6.47 7.5H8c.55 0 1-.45 1-1V6h3v.5c0 .55.45 1 1 1h1.53zM14.53 3.5H13c-.55 0-1 .45-1 1V5H9v-.5c0-.51-.39-.93-.88-.99.09-.01.18-.05.26-.13.57-.57 1.32-.88 2.12-.88.28 0 .5-.22.5-.5s-.22-.5-.5-.5c-1.07 0-2.07.42-2.83 1.17-.19.2-.19.51 0 .71.06.06.14.1.22.12H6.47A4.494 4.494 0 0113 1.76c.49.32.92.75 1.24 1.24.11.16.21.33.29.5z"/>
    <path opacity=".5" d="M7.38 10.03l-1.32 1.33-1.41-1.41 1.32-1.33a5.9 5.9 0 001.41 1.41z"/>
    <path d="M6.1 11.4L4.6 9.9c-.19-.2-.51-.2-.7 0L.15 13.65c-.2.19-.2.51 0 .7l1.5 1.5c.09.1.22.15.35.15s.26-.05.35-.15L6.1 12.1c.2-.19.2-.51 0-.7zM2 14.79L1.21 14l3.04-3.04.79.79L2 14.79z"/>
    <path opacity=".5" d="M1.21 14l3.04-3.04.79.79L2 14.79z"/>
    <path class="red" d="M2 2H1c-.55 0-1 .45-1 1v1c0 .55.45 1 1 1h1c.55 0 1-.45 1-1V3c0-.55-.45-1-1-1zm0 2H1V3h1v1z"/>
    <path opacity=".1" d="M1 3h1v1H1z"/>
    <path class="blue" d="M15 11h-1c-.55 0-1 .45-1 1v1c0 .55.45 1 1 1h1c.55 0 1-.45 1-1v-1c0-.55-.45-1-1-1zm0 2h-1v-1h1v1z"/>
    <path opacity=".1" d="M14 12h1v1h-1zM15 1v1h-.26a5.17 5.17 0 00-.74-.74V1h1z"/>
    <path class="blue" d="M16 1v1c0 .42-.27.79-.64.93-.17-.33-.38-.64-.62-.93H15V1h-1v.26c-.29-.24-.6-.45-.93-.62.14-.37.51-.64.93-.64h1c.55 0 1 .45 1 1zM8.12 3.51h-.01c-.03.01-.05.01-.08.01-.05 0-.09-.01-.14-.02H6.47c-.16.31-.28.65-.36 1h.52c0-.28.22-.5.5-.5.27 0 .5.22.5.5H8v2H6.11c.08.35.2.69.36 1H8c.55 0 1-.45 1-1v-2c0-.51-.39-.93-.88-.99z"/>
    <path class="red" d="M13 4.5h1.89c-.08-.35-.2-.69-.36-1H13c-.55 0-1 .45-1 1v2c0 .55.45 1 1 1h1.53c.16-.31.28-.65.36-1H13v-2z"/>
    <path opacity=".5" d="M5 5v1H4c-.28 0-.5-.22-.5-.5V4H3V3h1c.28 0 .5.22.5.5V5H5zM15 8.65V11h-1V9.74c.38-.32.72-.68 1-1.09z"/>
    <path opacity=".75" d="M9 5h3v1H9z"/>
  </symbol>
  <symbol id="icon-snap-to-grid" viewBox="0 0 16 16">
    <path d="M16 1v14a1 1 0 0 1-1 1H1a1 1 0 0 1-1-1v-5h1v5h14V1h-5V0h5a1 1 0 0 1 1 1z" opacity=".5"/>
    <path d="M11 6v4h4v1h-4v4h-1v-4H6v4H5v-4H1v-1h9V1h1v4h4v1z"/>
    <path d="M10 5v1H6v4H5V8.85l.51-.51L5 7.83V6H3.17l-.49-.49A1.63 1.63 0 0 1 2.32 5H5V2.32c.19.08.36.21.51.36l.49.49V5h1.83l.51.51.51-.51H10z" opacity=".25"/>
    <path d="M10 0v1H6.63a4.03 4.03 0 0 0-5.08 0H1v.55a3.98 3.98 0 0 0 0 5.08V10H0V1a1 1 0 0 1 1-1h9z" opacity=".1"/>
    <path class="red" d="M8.34 2.68 6.92 4.09 5.51 2.68A1.63 1.63 0 0 0 5 2.32 1.98 1.98 0 0 0 2.32 5c.08.19.21.36.36.51l.49.49.92.92-1.41 1.42-1.42-1.42A3.58 3.58 0 0 1 .5 5.84 3.98 3.98 0 0 1 2.33.5a4.03 4.03 0 0 1 4.59.76l1.42 1.42z"/>
    <path d="M5.51 8.34 5 8.85l-.91.9-1.41-1.41 1.41-1.42.71.71.2.2zM9.75 4.09l-.9.91-.51.51-1.42-1.42 1.42-1.41.7.71z"/>
  </symbol>

  <!-- Menus -->
  <symbol id="icon-sm-import" viewBox="0 0 16 16">
    <path opacity=".75" d="M16 11v4c0 .55-.45 1-1 1H1c-.55 0-1-.45-1-1v-4c0-.55.45-1 1-1s1 .45 1 1v3h12v-3c0-.55.45-1 1-1s1 .45 1 1z"/>
    <path d="M13.41 7L8 12.41 2.59 7 4 5.59l3 3V0h2v8.59l3-3z"/>
  </symbol>
  <symbol id="icon-sm-export" viewBox="0 0 16 16">
    <path opacity=".75" d="M16 11v4c0 .55-.45 1-1 1H1c-.55 0-1-.45-1-1v-4c0-.55.45-1 1-1s1 .45 1 1v3h12v-3c0-.55.45-1 1-1s1 .45 1 1z"/>
    <path d="M13.41 5L12 6.41l-3-3V12H7V3.41l-3 3L2.59 5 8-.41z"/>
  </symbol>
  <symbol id="icon-sm-print" viewBox="0 0 16 16">
    <path d="M16 6v7c0 .55-.45 1-1 1h-1c-.55 0-1-.45-1-1s.45-1 1-1V7H2v5c.55 0 1 .45 1 1s-.45 1-1 1H1c-.55 0-1-.45-1-1V6c0-.55.45-1 1-1h14c.55 0 1 .45 1 1z"/>
    <path opacity=".75" d="M13 0v5h-2V2H5v3H3V0zM3 9v7h10V9H3zm8 5H5v-3h6v3z"/>
    <path opacity=".25" d="M14 7v5c-.55 0-1 .45-1 1V8h-1v1H3v4c0-.55-.45-1-1-1V7h12z"/>
    <path class="green" d="M12 8h1v1h-1z"/>
  </symbol>
  <symbol id="icon-sm-properties" viewBox="0 0 16 16">
    <path d="M13 0a3 3 0 0 0-2.83 3.98A3 3 0 0 0 13 6a3 3 0 0 0 3-3 3 3 0 0 0-3-3zm0 4c-.55 0-1-.45-1-1s.45-1 1-1 1 .45 1 1-.45 1-1 1z"/>
    <circle class="purple" opacity=".5" cx="13" cy="3" r="1"/>
    <path d="M12.82 12c-.41-1.16-1.52-2-2.82-2a3 3 0 0 0 0 6 3 3 0 0 0 2.82-4zM10 14c-.55 0-1-.45-1-1s.45-1 1-1 1 .45 1 1-.45 1-1 1z"/>
    <circle class="purple" opacity=".5" cx="10" cy="13" r="1"/>
    <path d="M5.83 7.02A3 3 0 0 0 3 5a3 3 0 0 0-3 3 3 3 0 0 0 3 3 3 3 0 0 0 2.83-3.98zM3 9c-.55 0-1-.45-1-1s.45-1 1-1 1 .45 1 1-.45 1-1 1z"/>
    <circle class="purple" opacity=".5" cx="3" cy="8" r="1"/>
    <path opacity=".5" d="M10 3c0 .34.06.67.17.98A.88.88 0 0 1 10 4H1c-.55 0-1-.45-1-1s.45-1 1-1h9l.17.02c-.11.31-.17.64-.17.98zM16 8a1 1 0 0 1-1 1H6a.88.88 0 0 1-.17-.02 2.93 2.93 0 0 0 0-1.96A.88.88 0 0 1 6 7h9a1 1 0 0 1 1 1zM7 13c0 .35.06.69.18 1H1c-.55 0-1-.45-1-1s.45-1 1-1h6.18c-.12.31-.18.65-.18 1zM16 13a1 1 0 0 1-1 1h-2.18a2.77 2.77 0 0 0 0-2H15a1 1 0 0 1 1 1z"/>
  </symbol>
  <symbol id="icon-sm-parameters" viewBox="0 0 16 16">
    <path class="blue" opacity=".75" d="M14 0h-4a2 2 0 0 0-2 2v4c0 1.1.9 2 2 2h4a2 2 0 0 0 2-2V2a2 2 0 0 0-2-2zm0 6h-4V5h4v1zm0-3h-4V2h4v1z"/>
    <path d="M7 3v2H5v2H3V5H1V3h2V1h2v2z"/>
    <path d="M9 11h6v2H9z"/>
    <path class="blue" opacity=".75" d="M6 8H2a2 2 0 0 0-2 2v4c0 1.1.9 2 2 2h4a2 2 0 0 0 2-2v-4a2 2 0 0 0-2-2zm-4 2h2l-1 1H2v-1zm4 4H4l1-1h1v1zm0-3l-3 3H2v-1l3-3h1v1z"/>
  </symbol>
  <symbol id="icon-sm-evaluations" viewBox="0 0 16 16">
    <path class="red" opacity=".3" d="M11 2v.59L9.42 4.17 9 4.09V2h2z"/>
    <path class="red" opacity=".2" d="M9 2v2.09a5.47 5.47 0 0 0-2 0V2h2z"/>
    <path class="red" opacity=".1" d="M7 2v2.09l-.42.08L5 2.59V2h2z"/>
    <path class="red" opacity=".75" d="M13 1v2c0 .27-.11.52-.29.71l-1.33 1.33a5.43 5.43 0 0 0-1.96-.87L11 2.59V2H5v.59l1.58 1.58a6.12 6.12 0 0 0-1.96.87L3.29 3.71A1.03 1.03 0 0 1 3 3V1a1 1 0 0 1 1-1h8a1 1 0 0 1 1 1z"/>
    <path d="M11.38 5.04a5.43 5.43 0 0 0-1.96-.87L9 4.09a5.47 5.47 0 0 0-2 0l-.42.08a6.12 6.12 0 0 0-1.96.87 6 6 0 1 0 6.76 0zM8 14a4 4 0 1 1 0-8 4 4 0 0 1 0 8z"/>
    <path class="yellow" opacity=".5" d="M9.92 6.5a3.9 3.9 0 0 0-3.84 0 4 4 0 1 0 3.84 0zm.08 5l-.5.5h-3l-.5-.5v-3l.5-.5h3l.5.5v3z"/>
    <path class="yellow" d="M10 8.5v3l-.5.5h-3l-.5-.5v-3l.5-.5h3z"/>
  </symbol>
  <symbol id="icon-sm-save" viewBox="0 0 16 16">
    <path d="M12 5.586l-3 3V0H7v8.586l-3-3L2.586 7 8 12.414 13.414 7z"/>
    <path class="blue" opacity=".75" d="M8 16c-4.411 0-8-3.589-8-8 0-2.137.832-4.146 2.343-5.657a.999.999 0 1 1 1.414 1.414A5.963 5.963 0 0 0 2 8c0 3.309 2.691 6 6 6s6-2.691 6-6c0-1.603-.624-3.11-1.757-4.243a.999.999 0 1 1 1.414-1.414A7.948 7.948 0 0 1 16 8c0 4.411-3.589 8-8 8z"/>
  </symbol>
  <symbol id="icon-sm-character" viewBox="0 0 16 16">
    <path class="skin" opacity=".1" d="M10 4v2c0 .1-.01.19-.02.28C9.84 7.25 9 8 8 8a2.012 2.012 0 0 1-2-2V4c0-1.1.9-2 2-2s2 .9 2 2z"/>
    <path class="skin" d="M8 0C5.79 0 4 1.79 4 4v2c0 .39.06.78.17 1.14.19.66.55 1.25 1.03 1.71C5.93 9.56 6.91 10 8 10s2.07-.44 2.8-1.15c.48-.46.84-1.05 1.03-1.71.11-.36.17-.75.17-1.14V4c0-2.21-1.79-4-4-4zm2 6c0 .1-.01.19-.02.28C9.84 7.25 9 8 8 8a2.012 2.012 0 0 1-2-2V4c0-1.1.9-2 2-2s2 .9 2 2v2z"/>
    <path opacity=".75" d="M15 13v2c0 .55-.45 1-1 1H2c-.55 0-1-.45-1-1v-2c0-2.45 1.26-4.6 3.17-5.86.19.66.55 1.25 1.03 1.71C3.88 9.75 3 11.28 3 13v1h1v-1c0-.55.45-1 1-1s1 .45 1 1v1h4v-1c0-.55.45-1 1-1s1 .45 1 1v1h1v-1c0-1.72-.88-3.25-2.2-4.15.48-.46.84-1.05 1.03-1.71C13.74 8.4 15 10.55 15 13z"/>
    <path class="purple" opacity=".25" d="M13 13v1h-1v-1c0-.55-.45-1-1-1s-1 .45-1 1v1H6v-1c0-.55-.45-1-1-1s-1 .45-1 1v1H3v-1c0-1.72.88-3.25 2.2-4.15C5.93 9.56 6.91 10 8 10s2.07-.44 2.8-1.15c1.32.9 2.2 2.43 2.2 4.15z"/>
  </symbol>
  <symbol id="icon-sm-element-list" viewBox="0 0 16 16">
    <path d="M6 2h10v2H6zM6 7h10v2H6zM6 12h10v2H6z"/>
    <path class="blue" d="M3.2021 5H.7979A.7979.7979 0 0 1 0 4.2021V1.7979A.7979.7979 0 0 1 .7979 1h2.4043A.7978.7978 0 0 1 4 1.7979v2.4043A.7978.7978 0 0 1 3.2021 5z"/>
    <path class="red" d="M3.2021 10H.7979A.7979.7979 0 0 1 0 9.2021V6.7979A.7979.7979 0 0 1 .7979 6h2.4043A.7978.7978 0 0 1 4 6.7979v2.4043A.7978.7978 0 0 1 3.2021 10z"/>
    <path class="yellow" d="M3.2021 15H.7979A.7979.7979 0 0 1 0 14.2021v-2.4043A.7978.7978 0 0 1 .7979 11h2.4043A.7978.7978 0 0 1 4 11.7979v2.4043A.7978.7978 0 0 1 3.2021 15z"/>
  </symbol>

  <!-- Sidebar -->
  <symbol id="icon-subject" viewBox="0 0 16 16">
    <path d="M6.5 0h-5C.7 0 0 .7 0 1.5v2C0 4.3.7 5 1.5 5h5C7.3 5 8 4.3 8 3.5v-2C8 .7 7.3 0 6.5 0zM7 3.5c0 .3-.2.5-.5.5h-5c-.3 0-.5-.2-.5-.5v-2c0-.3.2-.5.5-.5h5c.3 0 .5.2.5.5v2z"/>
    <path class="blue" opacity=".75" d="M7 1.5v2c0 .3-.2.5-.5.5h-5c-.3 0-.5-.2-.5-.5v-2c0-.3.2-.5.5-.5h5c.3 0 .5.2.5.5z"/>
    <path opacity=".75" d="M14.5 0h-5C8.7 0 8 .7 8 1.5v2C8 4.3 8.7 5 9.5 5h5c.8 0 1.5-.7 1.5-1.5v-2c0-.8-.7-1.5-1.5-1.5zm.5 3.5c0 .3-.2.5-.5.5h-5c-.3 0-.5-.2-.5-.5v-2c0-.3.2-.5.5-.5h5c.3 0 .5.2.5.5v2z"/>
    <path opacity=".5" d="M6.5 5h-5C.7 5 0 5.7 0 6.5v2C0 9.3.7 10 1.5 10h5C7.3 10 8 9.3 8 8.5v-2C8 5.7 7.3 5 6.5 5zM7 8.5c0 .3-.2.5-.5.5h-5c-.3 0-.5-.2-.5-.5v-2c0-.3.2-.5.5-.5h5c.3 0 .5.2.5.5v2z"/>
  </symbol>
  <symbol id="icon-nodeplayer" viewBox="0 0 16 16">
    <path d="M12.5 0h-9A3.5 3.5 0 0 0 0 3.5v5A3.5 3.5 0 0 0 3.5 12H5v3.5c0 .2.12.38.31.46.06.03.13.04.19.04.13 0 .26-.05.35-.15L9.71 12h2.79A3.5 3.5 0 0 0 16 8.5v-5A3.5 3.5 0 0 0 12.5 0zM15 8.5a2.5 2.5 0 0 1-2.5 2.5h-3a.47.47 0 0 0-.35.15L6 14.29V11.5a.5.5 0 0 0-.5-.5h-2A2.5 2.5 0 0 1 1 8.5v-5A2.5 2.5 0 0 1 3.5 1h9A2.5 2.5 0 0 1 15 3.5v5z"/>
    <path class="blue" opacity=".1" d="M12.5 1h-9A2.5 2.5 0 0 0 1 3.5v5A2.5 2.5 0 0 0 3.5 11h2c.28 0 .5.22.5.5v2.79l3.15-3.14c.09-.1.22-.15.35-.15h3A2.5 2.5 0 0 0 15 8.5v-5A2.5 2.5 0 0 0 12.5 1zM12 9.5a.5.5 0 0 1-.5.5h-7a.5.5 0 0 1-.5-.5V8.25l.03-.36c0-.07.01-.13.03-.19l.04-.18.06-.19.06-.15a.89.89 0 0 1 .08-.17l.05-.1c.07-.13.15-.25.25-.37.09-.12.19-.22.3-.32.12-.1.24-.2.36-.28.12-.08.26-.15.4-.21l.02-.01c.11-.05.22-.09.34-.12l.07-.02a.36.36 0 0 1-.02-.1c-.02-.06-.04-.11-.04-.17C6.01 5.21 6 5.1 6 5V4c0-1.1.9-2 2-2s2 .9 2 2v1c0 .1-.01.21-.03.31 0 .06-.02.11-.04.17l-.02.1.07.02a1.96 1.96 0 0 1 .36.13 2.52 2.52 0 0 1 1.06.81c.1.12.18.24.25.37l.05.1.08.17.06.15.06.19.04.18c.02.06.03.12.03.19l.03.36V9.5z"/>
    <path class="blue" opacity=".25" d="M11 8.25V9h-1V8c0-.28-.22-.5-.5-.5S9 7.72 9 8v1H7V8c0-.28-.22-.5-.5-.5S6 7.72 6 8v1H5v-.75a1.72 1.72 0 0 1 .75-1.43.89.89 0 0 1 .25-.14c.21-.11.44-.17.69-.17a2.03 2.03 0 0 0 2.63 0l.3.03c.07.02.14.03.2.07l.18.06c.09.04.18.1.26.16a1 1 0 0 1 .22.19c.06.05.12.11.15.18.11.12.18.25.24.39.08.2.13.43.13.66z"/>
    <path class="blue" opacity=".5" d="M12 8.25V9.5a.5.5 0 0 1-.5.5h-7a.5.5 0 0 1-.5-.5V8.25l.03-.36c0-.07.01-.13.03-.19l.04-.18.06-.19.06-.15a.89.89 0 0 1 .08-.17l.05-.1c.07-.13.15-.25.25-.37.09-.12.19-.22.3-.32.12-.1.24-.2.36-.28.12-.08.26-.15.4-.21l.02-.01c.11-.05.22-.09.34-.12l.07-.02h.01c.04.17.11.32.2.47h.01c.05.1.12.19.2.28l.18.18c-.25 0-.48.06-.69.17a1.72 1.72 0 0 0-1 1.57V9h1V8c0-.28.22-.5.5-.5s.5.22.5.5v1h2V8c0-.28.22-.5.5-.5s.5.22.5.5v1h1v-.75c0-.23-.05-.46-.13-.66a1.33 1.33 0 0 0-.24-.39.52.52 0 0 0-.15-.18 1 1 0 0 0-.22-.19 1.4 1.4 0 0 0-.26-.16.64.64 0 0 0-.18-.06c-.06-.04-.13-.05-.2-.07l-.3-.03.16-.17c.08-.09.15-.19.21-.29h.01c.09-.15.16-.3.2-.47h.01l.07.02a1.96 1.96 0 0 1 .36.13 2.52 2.52 0 0 1 1.06.81c.1.12.18.24.25.37l.05.1.08.17.06.15.06.19.04.18c.02.06.03.12.03.19l.03.36z"/>
    <path class="blue" opacity=".75" d="M8 2a2 2 0 0 0-2 2v1c0 .1.01.21.03.31l.04.17.02.1h.01c.04.17.11.32.2.47h.01c.05.1.12.19.2.28l.18.18a2.03 2.03 0 0 0 2.63 0l.16-.17c.08-.09.15-.19.21-.29h.01c.09-.15.16-.3.2-.47h.01a.36.36 0 0 0 .02-.1l.04-.17c.02-.1.03-.21.03-.31V4a2 2 0 0 0-2-2zm1 3c0 .08-.01.16-.04.24.01.02 0 .03-.01.04a.6.6 0 0 1-.09.22 1 1 0 0 1-1.72 0 .47.47 0 0 1-.09-.22c-.01-.01-.02-.02-.01-.04A.67.67 0 0 1 7 5V4c0-.55.45-1 1-1s1 .45 1 1v1z"/>
    <path class="blue" opacity=".25" d="M9 4v1c0 .08-.01.16-.04.24.01.02 0 .03-.01.04a.85.85 0 0 1-.22.39 1 1 0 0 1-1.59-.17.85.85 0 0 1-.09-.22c-.01-.01-.02-.02-.01-.04A.67.67 0 0 1 7 5V4c0-.55.45-1 1-1s1 .45 1 1z"/>
  </symbol>
  <symbol id="icon-nodecomputer" viewBox="0 0 16 16">
    <path d="M15.5 0H.5a.5.5 0 0 0-.5.5v11c0 .28.22.5.5.5h4.79l3.86 3.85c.09.1.22.15.35.15.06 0 .13-.01.19-.04a.5.5 0 0 0 .31-.46V12h5.5a.5.5 0 0 0 .5-.5V.5a.5.5 0 0 0-.5-.5zM15 11H9.5a.5.5 0 0 0-.5.5v2.79l-3.15-3.14A.47.47 0 0 0 5.5 11H1V1h14v10z"/>
    <path class="red" opacity=".1" d="M1 1v10h4.5c.13 0 .26.05.35.15L9 14.29V11.5c0-.28.22-.5.5-.5H15V1H1zm11 8.5a.5.5 0 0 1-.5.5h-7a.5.5 0 0 1-.5-.5V7c0-.83.67-1.5 1.5-1.5H6v-2C6 2.67 6.67 2 7.5 2h1c.83 0 1.5.67 1.5 1.5v2h.5c.83 0 1.5.67 1.5 1.5v2.5z"/>
    <path class="red" opacity=".25" d="M11 7v2h-1V7.5H9V9H7V7.5H6V9H5V7c0-.28.22-.5.5-.5h.9c.27.31.67.5 1.1.5h1c.44 0 .84-.19 1.11-.5h.89c.28 0 .5.22.5.5z"/>
    <path class="red" opacity=".5" d="M12 7v2.5a.5.5 0 0 1-.5.5h-7a.5.5 0 0 1-.5-.5V7c0-.83.67-1.5 1.5-1.5H6a1.43 1.43 0 0 0 .21.75c.05.09.11.18.19.25h-.9A.5.5 0 0 0 5 7v2h1V7.5h1V9h2V7.5h1V9h1V7a.5.5 0 0 0-.5-.5h-.89c.07-.07.13-.15.18-.24.05-.08.09-.17.12-.26.06-.16.09-.33.09-.5h.5c.83 0 1.5.67 1.5 1.5z"/>
    <path class="red" opacity=".75" d="M8.5 2h-1C6.67 2 6 2.67 6 3.5v2a1.43 1.43 0 0 0 .21.75c.05.09.11.18.19.25.27.31.67.5 1.1.5h1c.44 0 .84-.19 1.11-.5.07-.07.13-.15.18-.24.05-.08.09-.17.12-.26.06-.16.09-.33.09-.5v-2C10 2.67 9.33 2 8.5 2zM9 5.5c0 .09-.02.17-.07.25l-.01.01A.48.48 0 0 1 8.5 6h-1a.47.47 0 0 1-.43-.26A.4.4 0 0 1 7 5.5v-2c0-.28.22-.5.5-.5h1c.28 0 .5.22.5.5v2z"/>
    <path class="red" opacity=".25" d="M9 3.5v2c0 .09-.02.17-.07.25l-.01.01A.48.48 0 0 1 8.5 6h-1a.47.47 0 0 1-.43-.26A.4.4 0 0 1 7 5.5v-2c0-.28.22-.5.5-.5h1c.28 0 .5.22.5.5z"/>
  </symbol>
  <symbol id="icon-nodesituation" viewBox="0 0 16 16">
    <path d="M0 2v12h16V2H0zm15 11H1V3h14v10z"/>
    <path class="yellow" opacity=".1" d="M1 3v10h14V3H1zm9.98 4.31c0 .1-.01.2-.04.3C10.59 9.89 8.35 12 8 12S5.41 9.89 5.06 7.61A3.23 3.23 0 0 1 5 7a3 3 0 1 1 5.98.31z"/>
    <path class="yellow" d="M8 4a3 3 0 0 0-2.94 3.61C5.41 9.89 7.65 12 8 12s2.59-2.11 2.94-4.39l.04-.3L11 7a3 3 0 0 0-3-3zm.09 4.49L8 8.5l-.09-.01a1.49 1.49 0 0 1-1.38-1.77 1.5 1.5 0 0 1 2.94 0 1.49 1.49 0 0 1-1.38 1.77z"/>
  </symbol>
  <symbol id="icon-preconditions" viewBox="0 0 16 16">
    <path d="M8 0a2 2 0 1 0 2 2 2 2 0 0 0-2-2zm0 3c-.55 0-1-.45-1-1s.45-1 1-1 1 .45 1 1-.45 1-1 1z"/>
    <circle class="teal" opacity=".75" cx="8" cy="2" r="1"/>
    <path opacity=".75" d="M3.17 9l.67.5H2.5V12h-1V8.5h2.34z"/>
    <path d="M0 12v4h4v-4H0zm3 3H1v-2h2v2z"/>
    <path class="teal" opacity=".75" d="M1 13h2v2H1z"/>
    <path d="M15 12h-2a1 1 0 0 0-1 1v2a1 1 0 0 0 1 1h2a1 1 0 0 0 1-1v-2a1 1 0 0 0-1-1zm0 3h-2v-2h2v2z"/>
    <path opacity=".75" d="M14.5 8.5V12h-1V9.5h-1.34l.67-.5-.67-.5z"/>
    <path class="teal" opacity=".75" d="M13 13h2v2h-2z"/>
    <path opacity=".75" d="M8.5 3.93v1.82L8 5.38l-.5.37V3.93c.16.05.33.07.5.07s.34-.02.5-.07z"/>
    <path d="M12.16 8.5L8.5 5.75 8 5.38l-.5.37L3.84 8.5l-.67.5.67.5L8 12.62l4.16-3.12.67-.5-.67-.5zM8 11.38L4.83 9 8 6.62 11.17 9 8 11.38z"/>
    <path class="teal" opacity=".25" d="M11.17 9L8 11.38 4.83 9 8 6.62z"/>
  </symbol>
  <symbol id="icon-note" viewBox="0 0 16 16">
    <path d="M0 0v16h10.41l.3-.29 5-5 .29-.3V0H0zm10 15v-5h5l-5 5zm5-6h-5c-.55 0-1 .45-1 1v5H1V1h14v8z"/>
    <path class="yellow" opacity=".05" d="M15 10l-5 5v-5z"/>
    <path class="yellow" opacity=".1" d="M1 1h14v1H1zM1 3v12h8v-5c0-.55.45-1 1-1h5V3H1zm7 4H2V6h6v1zm6-2H2V4h12v1z"/>
    <path class="yellow" opacity=".25" d="M1 2h14v1H1z"/>
    <path class="yellow" opacity=".75" d="M2 4h12v1H2zM2 6h6v1H2z"/>
  </symbol>
  <symbol id="icon-endofscenario" viewBox="0 0 16 16">
    <path d="M12.5 0h-9A3.5 3.5 0 0 0 0 3.5v5A3.5 3.5 0 0 0 3.5 12H5v3.5c0 .2.12.38.31.46.06.03.13.04.19.04.13 0 .26-.05.35-.15L9.71 12h2.79A3.5 3.5 0 0 0 16 8.5v-5A3.5 3.5 0 0 0 12.5 0zM15 8.5a2.5 2.5 0 0 1-2.5 2.5h-3a.47.47 0 0 0-.35.15L6 14.29V11.5a.5.5 0 0 0-.5-.5h-2A2.5 2.5 0 0 1 1 8.5v-5A2.5 2.5 0 0 1 3.5 1h9A2.5 2.5 0 0 1 15 3.5v5z"/>
    <path class="red" d="M12.5 1h-9A2.5 2.5 0 0 0 1 3.5v5A2.5 2.5 0 0 0 3.5 11h2c.28 0 .5.22.5.5v2.79l3.15-3.14c.09-.1.22-.15.35-.15h3A2.5 2.5 0 0 0 15 8.5v-5A2.5 2.5 0 0 0 12.5 1zm-2.04 5.19v.01a.42.42 0 0 1-.11.15l-.07.07-2.43 2.43c-.09.1-.22.15-.35.15s-.26-.05-.35-.15a.48.48 0 0 1 0-.7L8.8 6.5H4a.5.5 0 0 1-.5-.5c0-.28.22-.5.5-.5h4.8L7.15 3.85a.48.48 0 0 1 0-.7c.19-.2.51-.2.7 0l2.43 2.43v.01c.03.01.05.03.07.06.05.04.08.09.11.15v.01c.03.06.04.13.04.19s-.01.13-.04.19zM12.5 9c0 .28-.22.5-.5.5s-.5-.22-.5-.5V3c0-.28.22-.5.5-.5s.5.22.5.5v6z" opacity=".1"/>
    <path class="red" d="M10.46 5.81V5.8a.42.42 0 0 0-.11-.15.13.13 0 0 0-.07-.06v-.01L7.85 3.15a.48.48 0 0 0-.7 0c-.2.19-.2.51 0 .7L8.8 5.5H4a.5.5 0 0 0-.5.5c0 .28.22.5.5.5h4.8L7.15 8.15c-.2.19-.2.51 0 .7.09.1.22.15.35.15s.26-.05.35-.15l2.43-2.43.07-.07a.42.42 0 0 0 .11-.15v-.01c.03-.06.04-.13.04-.19s-.01-.13-.04-.19z" opacity=".75"/>
    <path class="red" d="M12.5 3v6c0 .28-.22.5-.5.5s-.5-.22-.5-.5V3c0-.28.22-.5.5-.5s.5.22.5.5z"/>
  </symbol>
  <symbol id="icon-jumpsubject" viewBox="0 0 16 16">
    <path opacity=".5" d="M6.5 8h-5C.67 8 0 8.67 0 9.5v2c0 .83.67 1.5 1.5 1.5h5c.83 0 1.5-.67 1.5-1.5v-2C8 8.67 7.33 8 6.5 8zm.5 3.5a.5.5 0 0 1-.5.5h-5a.5.5 0 0 1-.5-.5v-2c0-.27.23-.5.5-.5h5c.27 0 .5.23.5.5v2z"/>
    <path opacity=".25" d="M7 9.5v2a.5.5 0 0 1-.5.5h-5a.5.5 0 0 1-.5-.5v-2c0-.27.23-.5.5-.5h5c.27 0 .5.23.5.5z"/>
    <path d="M14.5 8h-5C8.67 8 8 8.67 8 9.5v2c0 .83.67 1.5 1.5 1.5h5c.83 0 1.5-.67 1.5-1.5v-2c0-.83-.67-1.5-1.5-1.5zm.5 3.5a.5.5 0 0 1-.5.5h-5a.5.5 0 0 1-.5-.5v-2c0-.27.23-.5.5-.5h5c.27 0 .5.23.5.5v2z"/>
    <path class="purple" opacity=".5" d="M15 9.5v2a.5.5 0 0 1-.5.5h-5a.5.5 0 0 1-.5-.5v-2c0-.27.23-.5.5-.5h5c.27 0 .5.23.5.5z"/>
    <path d="M11.5 3.5v1.74A5.33 5.33 0 0 0 8 3.75c-2.6 0-4.33 2.36-4.4 2.46l-.3.4.81.59.3-.4C4.42 6.76 5.9 4.74 8 4.74c1.2 0 2.2.68 2.84 1.25H9v1h3.5V3.5h-1z"/>
  </symbol>
  <symbol id="icon-earlyend" viewBox="0 0 16 16">
    <path d="M12.5 0h-9A3.5 3.5 0 0 0 0 3.5v5A3.5 3.5 0 0 0 3.5 12H5v3.5a.5.5 0 0 0 .31.46.43.43 0 0 0 .19 0 .47.47 0 0 0 .35-.15L9.71 12h2.79A3.5 3.5 0 0 0 16 8.5v-5A3.5 3.5 0 0 0 12.5 0zM15 8.5a2.5 2.5 0 0 1-2.5 2.5h-3a.47.47 0 0 0-.35.15L6 14.29V11.5a.5.5 0 0 0-.5-.5h-2A2.5 2.5 0 0 1 1 8.5v-5A2.5 2.5 0 0 1 3.5 1h9A2.5 2.5 0 0 1 15 3.5z"/>
    <path class="blue" d="M12.5 1h-9A2.5 2.5 0 0 0 1 3.5v5A2.5 2.5 0 0 0 3.5 11h2a.5.5 0 0 1 .5.5v2.79l3.15-3.14A.47.47 0 0 1 9.5 11h3A2.5 2.5 0 0 0 15 8.5v-5A2.5 2.5 0 0 0 12.5 1zM4.35 8.85a.48.48 0 0 1-.7 0 .48.48 0 0 1 0-.7L5.79 6 3.65 3.85a.49.49 0 0 1 .7-.7l2.5 2.5a.48.48 0 0 1 0 .7zm6-2.5l-2.5 2.5a.48.48 0 0 1-.7 0 .48.48 0 0 1 0-.7L9.29 6 7.15 3.85a.49.49 0 0 1 .7-.7l2.5 2.5a.48.48 0 0 1 0 .7zM12.5 8.5a.5.5 0 0 1-1 0v-5a.5.5 0 0 1 1 0z" opacity=".1"/>
    <path class="blue" d="M10.35 6.35l-2.5 2.5a.48.48 0 0 1-.7 0 .48.48 0 0 1 0-.7L9.29 6 7.15 3.85a.49.49 0 0 1 .7-.7l2.5 2.5a.48.48 0 0 1 0 .7z" opacity=".75"/>
    <path class="blue" d="M6.85 6.35l-2.5 2.5a.48.48 0 0 1-.7 0 .48.48 0 0 1 0-.7L5.79 6 3.65 3.85a.49.49 0 0 1 .7-.7l2.5 2.5a.48.48 0 0 1 0 .7z" opacity=".5"/>
    <path class="blue" d="M12.5 3.5v5a.5.5 0 0 1-1 0v-5a.5.5 0 0 1 1 0z"/>
  </symbol>
  <symbol id="icon-optional-subject" viewBox="0 0 16 16">
    <path opacity=".5" d="M8 7v2c0 .03 0 .06-.01.08L7 8.21V7c0-.27-.23-.5-.5-.5h-5c-.27 0-.5.23-.5.5v2c0 .27.23.5.5.5h5c.12 0 .23-.05.32-.12l.75.66c-.26.28-.65.46-1.07.46h-5C.67 10.5 0 9.83 0 9V7c0-.83.67-1.5 1.5-1.5h5C7.33 5.5 8 6.17 8 7z"/>
    <path opacity=".75" d="M10.8 10H9.5c-.12 0-.23.05-.32.12l-.75-.66C8.69 9.18 9.08 9 9.5 9h.3l1 1zM10.8 13l-1 1h-.3c-.83 0-1.5-.67-1.5-1.5v-2c0-.03 0-.06.01-.08l.99.87v1.21c0 .27.23.5.5.5h1.3zM16 10.5v2c0 .83-.67 1.5-1.5 1.5h-3.3l1.01-1h2.29c.27 0 .5-.23.5-.5v-2c0-.27-.23-.5-.5-.5h-2.29L11.2 9h3.3c.83 0 1.5.67 1.5 1.5z"/>
    <path class="blue" opacity=".25" d="M15 10.5v2c0 .27-.23.5-.5.5h-2.29l1.07-1.08.04-.03.07-.07.03-.04.29-.28-.29-.28-.03-.04-.07-.07-.04-.03L12.21 10h2.29c.27 0 .5.23.5.5zM11.79 12l-.99 1H9.5c-.27 0-.5-.23-.5-.5v-1.21l.81.71h1.98zM11.79 11h-1.6l-1.01-.88c.09-.07.2-.12.32-.12h1.3l.99 1z"/>
    <path d="M13.71 11.5l-.29.28-.03.04-.07.07-.04.03L12.21 13l-1.01 1-.85.85-.7-.7L10.8 13l.99-1H9.81L9 11.29l-.99-.87-.44-.38-.75-.66-1.01-.88H4c-.28 0-.5-.22-.5-.5s.22-.5.5-.5h2.19l.81.71.99.87.44.38.75.66 1.01.88h1.6l-.99-1-1-1-.15-.15.7-.7.85.85 1.01 1 1.07 1.08.04.03.07.07.03.04.29.28z"/>
    <path opacity=".25" d="M14.5 2h-5C8.67 2 8 2.67 8 3.5v2C8 6.33 8.67 7 9.5 7h5c.83 0 1.5-.67 1.5-1.5v-2c0-.83-.67-1.5-1.5-1.5zm.5 3.5c0 .27-.23.5-.5.5h-5c-.27 0-.5-.23-.5-.5v-2c0-.27.23-.5.5-.5h5c.27 0 .5.23.5.5v2z"/>
  </symbol>

  <!-- Buttons -->
  <symbol id="icon-plus" viewBox="0 0 16 16">
    <desc>+</desc>
    <path opacity=".5" d="M14 0H2a2 2 0 0 0-2 2v12c0 1.1.9 2 2 2h12a2 2 0 0 0 2-2V2a2 2 0 0 0-2-2zm0 14H2V2h12v12z"/>
    <path d="M13 8a1 1 0 0 1-1 1H9v3c0 .55-.45 1-1 1s-1-.45-1-1V9H4c-.55 0-1-.45-1-1s.45-1 1-1h3V4c0-.55.45-1 1-1s1 .45 1 1v3h3a1 1 0 0 1 1 1z"/>
  </symbol>
  <symbol id="icon-minus" viewBox="0 0 16 16">
    <desc>-</desc>
    <path opacity=".5" d="M14 0H2a2 2 0 0 0-2 2v12c0 1.1.9 2 2 2h12a2 2 0 0 0 2-2V2a2 2 0 0 0-2-2zm0 14H2V2h12v12z"/>
    <path d="M13 8a1 1 0 0 1-1 1H4c-.55 0-1-.45-1-1s.45-1 1-1h8a1 1 0 0 1 1 1z"/>
  </symbol>
  <symbol id="icon-open" viewBox="0 0 16 16">
    <path d="M8 12.41L.59 5 2 3.59l6 6 6-6L15.41 5z"/>
  </symbol>
  <symbol id="icon-closed" viewBox="0 0 16 16">
    <path d="M5 15.41L3.59 14l6-6-6-6L5 .59 12.41 8z"/>
  </symbol>
  <symbol id="icon-time" viewBox="0 0 16 16">
    <path class="green" d="M16 13.21V14a2 2 0 0 1-2 2h-.78a7 7 0 0 0 1.48-1.12 7.22 7.22 0 0 0 1.3-1.67zM2 4a2.82 2.82 0 0 0-.12.83 3 3 0 0 0 .12.89V14h1.52a6.54 6.54 0 0 0 .6.7A7.22 7.22 0 0 0 5.79 16H2a2 2 0 0 1-2-2V2a2 2 0 0 1 2-2h4.87a4 4 0 0 0-1.13 1.67 2.64 2.64 0 0 0-.1.3 3.23 3.23 0 0 0-.76-.1A3.23 3.23 0 0 0 4 2H2zM16 2v.53a2.94 2.94 0 0 0-1.85-.65h-.22a2.82 2.82 0 0 0-.57.09 1.93 1.93 0 0 0-.11-.34A3.83 3.83 0 0 0 12.13 0H14a2 2 0 0 1 2 2z" opacity=".5"/>
    <path class="green" d="M6.55 3.72a6.35 6.35 0 0 0-2.83 2.83l-.26-.26a2 2 0 0 1 2.83-2.83zM16 5.56a1.88 1.88 0 0 1-.46.73l-.26.26A6.18 6.18 0 0 0 14 4.83a5.86 5.86 0 0 0-1.55-1.11l.26-.26A1.93 1.93 0 0 1 14 2.89a2 2 0 0 1 1.54.57 1.88 1.88 0 0 1 .46.73 2 2 0 0 1 0 1.37z" opacity=".75"/>
    <path class="green" d="M15.28 6.55A6.18 6.18 0 0 0 14 4.83a5.86 5.86 0 0 0-1.55-1.11l-.06.06a.24.24 0 0 0 0-.08 2.69 2.69 0 0 0 .11-.7 2.77 2.77 0 0 0-.18-1 3 3 0 0 0-5.64 0 2.77 2.77 0 0 0-.18 1 2.69 2.69 0 0 0 .09.7.24.24 0 0 0 0 .08l-.06-.06a6.35 6.35 0 0 0-2.81 2.83A6.43 6.43 0 0 0 4.83 14a6.46 6.46 0 0 0 4.67 2 6.39 6.39 0 0 0 4.5-1.83 6.43 6.43 0 0 0 1.28-7.62zM9.5 2a1 1 0 0 1 1 1 .22.22 0 0 1 0 .08 6.17 6.17 0 0 0-2 0 .22.22 0 0 1 0-.08 1 1 0 0 1 1-1zm0 12A4.51 4.51 0 0 1 5 9.5a4.27 4.27 0 0 1 .24-1.44 4.52 4.52 0 0 1 2.44-2.68l.38-.14a4.44 4.44 0 0 1 2.88 0l.38.14a4.52 4.52 0 0 1 2.44 2.68A4.27 4.27 0 0 1 14 9.5 4.51 4.51 0 0 1 9.5 14z"/>
    <path class="green" d="M12.41 3.7a.24.24 0 0 1 0 .08l.06-.06-.06-.02zm-5.82 0l.06.06a.24.24 0 0 1-.06-.06zM11 9.5A1.5 1.5 0 1 1 9.5 8h.07A1.48 1.48 0 0 1 11 9.43a.17.17 0 0 1 0 .07z"/>
    <path class="green" d="M12.21 8.21L11 9.43A1.48 1.48 0 0 0 9.57 8l.63-.63.59-.59a1 1 0 1 1 1.42 1.42z" opacity=".75"/>
  </symbol>
  <symbol id="icon-list" viewBox="0 0 16 16">
    <circle cx="2" cy="2" r="2"/>
    <circle cx="2" cy="8" r="2"/>
    <circle cx="2" cy="14" r="2"/>
    <path d="M6 1h10v2H6zM6 7h10v2H6zM6 13h10v2H6z"/>
  </symbol>
  <symbol id="icon-cog" viewBox="0 0 16 16">
    <path d="M16 8c0-.34-.03-.67-.07-1l-2.96-1.06 1.35-2.84c-.42-.53-.9-1-1.42-1.42l-2.84 1.35L9 .07C8.67.03 8.34 0 8 0s-.67.03-1 .07L5.94 3.03 3.1 1.68c-.53.4-1 .9-1.42 1.42l1.35 2.84L.07 7C.03 7.33 0 7.66 0 8s.03.67.07 1l2.96 1.06-1.35 2.84c.4.53.9 1 1.42 1.42l2.84-1.35L7 15.93c.33.04.66.07 1 .07s.67-.03 1-.07l1.06-2.96 2.84 1.35c.53-.42 1-.9 1.42-1.42l-1.35-2.84L15.93 9c.04-.33.07-.66.07-1zm-8 3c-1.66 0-3-1.34-3-3s1.34-3 3-3 3 1.34 3 3-1.34 3-3 3z"/>
  </symbol>
  <symbol id="icon-jump" viewBox="0 0 16 16">
    <path d="M11.92 10.6A16.77 16.77 0 003.58 2h4.5a1 1 0 000-2H1a1 1 0 00-1 1v7.07a1 1 0 002 0V3.4a.98.98 0 00.27.19 14.8 14.8 0 017.81 7.8A1 1 0 0011 12a.98.98 0 00.4-.08 1 1 0 00.52-1.31z"/>
  </symbol>

  <!-- Node properties -->
  <symbol id="icon-node-has-comments" viewBox="0 0 16 16">
    <path class="white" d="M0 0v16h10.41l.23-.22.07-.07 5-5 .07-.07.22-.23V0z"/>
    <path d="M10 16h.41l.23-.22A1.05 1.05 0 0 1 10 16zm5.78-5.36l.22-.23V10a1.05 1.05 0 0 1-.22.64z"/>
    <path d="M16 0v10a1 1 0 0 0-1-1h-1V2H2v12h7v1a1 1 0 0 0 .62.92.84.84 0 0 0 .38.08H0V0z" opacity=".75"/>
    <path d="M15.92 9.62A1 1 0 0 0 15 9h-5a1 1 0 0 0-1 1v5a1 1 0 0 0 .62.92.84.84 0 0 0 .38.08 1.05 1.05 0 0 0 .64-.22l.07-.07 5-5 .07-.07A1.05 1.05 0 0 0 16 10a1 1 0 0 0-.08-.38zm-4.92 3V11h1.59z"/>
    <path opacity=".5" d="M2 2h12v2H2z"/>
  </symbol>
  <symbol id="icon-node-has-end" viewBox="0 0 16 16">
    <rect class="white" width="16" height="16" rx="3" ry="3"/>
    <path class="red" d="M13 0H3a3 3 0 0 0-3 3v10a3 3 0 0 0 3 3h10a3 3 0 0 0 3-3V3a3 3 0 0 0-3-3zm1 13a1 1 0 0 1-1 1H3a1 1 0 0 1-1-1V3a1 1 0 0 1 1-1h10a1 1 0 0 1 1 1z" opacity=".5"/>
    <path class="red" d="M13 2H3a1 1 0 0 0-1 1v10a1 1 0 0 0 1 1h10a1 1 0 0 0 1-1V3a1 1 0 0 0-1-1zM8.71 8.71l-3 3a1 1 0 0 1-1.42 0 1 1 0 0 1 0-1.42L6.59 8l-2.3-2.29a1 1 0 0 1 1.42-1.42l3 3a1 1 0 0 1 0 1.42zM12 11a1 1 0 0 1-2 0V5a1 1 0 0 1 2 0z" opacity=".1"/>
    <path d="M8.71 8.71l-3 3a1 1 0 0 1-1.42 0 1 1 0 0 1 0-1.42L6.59 8l-2.3-2.29a1 1 0 0 1 1.42-1.42l3 3a1 1 0 0 1 0 1.42zM12 5v6a1 1 0 0 1-2 0V5a1 1 0 0 1 2 0z"/>
  </symbol>
  <symbol id="icon-node-has-jump" viewBox="0 0 16 16">
    <rect class="white" width="16" height="16" rx="3" ry="3"/>
    <path class="purple" d="M13 0H3a3 3 0 0 0-3 3v10a3 3 0 0 0 3 3h10a3 3 0 0 0 3-3V3a3 3 0 0 0-3-3zm1 13a1 1 0 0 1-1 1H3a1 1 0 0 1-1-1V3a1 1 0 0 1 1-1h10a1 1 0 0 1 1 1z" opacity=".5"/>
    <path class="purple" d="M13 2H3a1 1 0 0 0-1 1v10a1 1 0 0 0 1 1h10a1 1 0 0 0 1-1V3a1 1 0 0 0-1-1zm-1 9a1 1 0 0 1-1 1H6.76a1 1 0 1 1 0-2h2.13a8.31 8.31 0 0 0-4.28-4.08 1 1 0 0 1 .78-1.84A10.41 10.41 0 0 1 10 7.91V6.76a1 1 0 1 1 2 0z" opacity=".1"/>
    <path d="M12 6.76V11a1 1 0 0 1-1 1H6.76a1 1 0 1 1 0-2h2.13a8.31 8.31 0 0 0-4.28-4.08 1 1 0 0 1 .78-1.84A10.41 10.41 0 0 1 10 7.91V6.76a1 1 0 1 1 2 0z"/>
  </symbol>
  <symbol id="icon-node-has-preconditions" viewBox="0 0 16 16">
    <path class="white" d="M16 13v2a1 1 0 0 1-1 1h-2a1 1 0 0 1-1-1v-2a1 1 0 0 1 1-1v-2h-.66L8 13.25 3.66 10H3v2h1v4H0v-4h1V8h2.66L7 5.5V3.73a2 2 0 1 1 2 0V5.5L12.34 8H15v4a1 1 0 0 1 1 1z"/>
    <path d="M12.34 8L9 5.5l-1-.75-1 .75L3.66 8 2.33 9l1.33 1L8 13.25 12.34 10l1.33-1zM8 10.75L5.67 9 8 7.25 10.33 9z"/>
    <path opacity=".25" d="M10.33 9L8 10.75 5.67 9 8 7.25 10.33 9z"/>
    <path opacity=".5" d="M2.33 9l1.33 1H3v2H1V8h2.66L2.33 9zM15 8v4h-2v-2h-.66l1.33-1-1.33-1H15z"/>
    <path d="M0 12v4h4v-4zm3 3H1v-2h2z"/>
    <path opacity=".25" d="M1 13h2v2H1z"/>
    <path d="M15 12h-2a1 1 0 0 0-1 1v2a1 1 0 0 0 1 1h2a1 1 0 0 0 1-1v-2a1 1 0 0 0-1-1zm0 3h-2v-2h2z"/>
    <path opacity=".25" d="M13 13h2v2h-2z"/>
    <path d="M9 3.73V5.5l-1-.75-1 .75V3.73a2 2 0 0 0 2 0z" opacity=".5"/>
    <path d="M8 0a2 2 0 1 0 2 2 2 2 0 0 0-2-2zm0 3a1 1 0 1 1 1-1 1 1 0 0 1-1 1z"/>
    <circle cx="8" cy="2" r="1" opacity=".25"/>
  </symbol>
  <symbol id="icon-node-has-premature-end" viewBox="0 0 16 16">
    <rect class="white" width="16" height="16" rx="3" ry="3"/>
    <path class="blue" opacity=".5" d="M13 0H3C1.3 0 0 1.3 0 3v10a3 3 0 0 0 3 3h10a3 3 0 0 0 3-3V3c0-1.7-1.3-3-3-3zm1 13c0 .5-.5 1-1 1H3c-.5 0-1-.5-1-1V3c0-.5.5-1 1-1h10c.5 0 1 .5 1 1v10z"/>
    <path class="blue" opacity=".1" d="M4.6 8l-2.3 2.3c-.2.2-.3.4-.3.7V5c0 .3.1.5.3.7L4.6 8z"/>
    <path class="blue" opacity=".1" d="M13 4c.5 0 1 .5 1 1V3c0-.5-.5-1-1-1H3c-.5 0-1 .5-1 1v2c0-.3.1-.5.3-.7.4-.4 1-.4 1.4 0l3 3c.4.4.4 1 0 1.4l-3 3c-.2.2-.4.3-.7.3s-.5-.1-.7-.3A.9.9 0 0 1 2 11v2c0 .5.5 1 1 1h10c.5 0 1-.5 1-1v-2c0 .5-.5 1-1 1s-1-.5-1-1V5c0-.5.5-1 1-1zm-1.8 4.7l-3 3c-.2.2-.4.3-.7.3s-.5-.1-.7-.3c-.4-.4-.4-1 0-1.4L9.1 8 6.8 5.7c-.4-.4-.4-1 0-1.4.4-.4 1-.4 1.4 0l3 3c.4.4.4 1 0 1.4z"/>
    <path d="M6.7 8.7l-3 3c-.2.2-.4.3-.7.3s-.5-.1-.7-.3c-.2-.2-.3-.4-.3-.7s.1-.5.3-.7L4.6 8 2.3 5.7C2.1 5.5 2 5.3 2 5s.1-.5.3-.7c.4-.4 1-.4 1.4 0l3 3c.4.4.4 1 0 1.4z"/>
    <path d="M11.2 8.7l-3 3c-.2.2-.4.3-.7.3s-.5-.1-.7-.3c-.4-.4-.4-1 0-1.4L9.1 8 6.8 5.7c-.4-.4-.4-1 0-1.4.4-.4 1-.4 1.4 0l3 3c.4.4.4 1 0 1.4zM14 5v6c0 .5-.5 1-1 1s-1-.5-1-1V5c0-.5.5-1 1-1s1 .5 1 1z"/>
  </symbol>
  <symbol id="icon-tree-is-optional" viewBox="0 0 16 16">
    <path opacity=".5" d="M14 3v2H9.4l-3 3-1-1h-.8l4-4z"/>
    <path d="M15.9 12l-3.7 3.7-1.4-1.4 1.3-1.3H8.6l-4-4H0V7h5.4l4 4h2.7l-1.3-1.3 1.4-1.4z"/>
  </symbol>

  <!-- misc -->
  <symbol id="icon-speech-play" viewBox="0 0 16 16">
    <path d="M5 16c-.16 0-.32-.04-.46-.1-.33-.2-.54-.53-.54-.9V1c0-.37.2-.71.54-.9.33-.16.73-.13 1.03.08l10 7c.27.2.43.5.43.82s-.16.63-.43.82l-10 7c-.17.12-.37.18-.57.18zM6 2.92v10.16L13.26 8 6 2.92z"/>
  </symbol>
  <symbol id="icon-speech-pause" viewBox="0 0 16 16">
    <path d="M6 2H3c-.55 0-1 .45-1 1v10c0 .55.45 1 1 1h3c.55 0 1-.45 1-1V3c0-.55-.45-1-1-1zM5 12H4V4h1v8zM13 2h-3c-.55 0-1 .45-1 1v10c0 .55.45 1 1 1h3c.55 0 1-.45 1-1V3c0-.55-.45-1-1-1zm-1 10h-1V4h1v8z"/>
  </symbol>
  <symbol id="icon-microphone" viewBox="0 0 16 16">
    <path d="M8 11c1.65 0 3-1.35 3-3V3c0-1.65-1.35-3-3-3S5 1.35 5 3v5c0 1.65 1.35 3 3 3zM7 3c0-.55.45-1 1-1s1 .45 1 1v5c0 .55-.45 1-1 1s-1-.45-1-1V3z"/>
    <path d="M12.24 10.83c-.4-.4-1.02-.4-1.4 0-1.52 1.5-4.16 1.5-5.67 0-.4-.4-1.02-.4-1.4 0s-.4 1.02 0 1.4c.88.9 2 1.48 3.23 1.68V16h2v-2.1c1.22-.2 2.35-.76 3.24-1.66.4-.4.4-1.02 0-1.4z"/>
  </symbol>

  <!-- 20px button group -->
  <symbol id="icon-gallery" viewBox="0 0 20 20">
    <path d="M18 0H2a2 2 0 0 0-2 2v16a2 2 0 0 0 2 2h16a2 2 0 0 0 2-2V2a2 2 0 0 0-2-2zm0 18H2V2h16z" opacity=".75"/>
    <path class="white" d="M2 2v16h16V2zm14 10h-2V7.42l-5.29 5.29-1.42-1.42L12.58 6H8V4h8z"/>
    <path d="M16 4v8h-2V7.42l-5.29 5.29-1.42-1.42L12.58 6H8V4h8z"/>
  </symbol>
  <symbol id="icon-gallery-locations" viewBox="0 0 20 20">
    <path d="M0 4v14h16V4zm14 12H2V6h12z"/>
    <path class="white" d="M2 6v10h12V6zm11 9H3v-2l3-3 3 3 2-2 2 2zm0-5.28A2 2 0 0 1 10.28 7H13z"/>
    <path d="M13 13v2H3v-2l3-3 3 3 2-2 2 2zM13 7v2.72A2 2 0 0 1 10.28 7z"/>
    <path d="M20 0v14h-2V2H4V0h16z"/>
  </symbol>
  <symbol id="icon-gallery-character" viewBox="0 0 20 20">
    <path d="M19.55 11.26a1.78 1.78 0 0 0 .32-.57 2 2 0 0 0 0-1.36 1.78 1.78 0 0 0-.32-.57A6.54 6.54 0 0 1 19 6a6.54 6.54 0 0 1 .54-2.73 1.78 1.78 0 0 0 .32-.57A1.91 1.91 0 0 0 20 2a2 2 0 0 0-2-2 1.91 1.91 0 0 0-.68.12 1.78 1.78 0 0 0-.57.32A6.54 6.54 0 0 1 14 1a6.54 6.54 0 0 1-2.73-.54 1.78 1.78 0 0 0-.57-.32 2 2 0 0 0-1.36 0 1.78 1.78 0 0 0-.57.32A6.54 6.54 0 0 1 6 1 6.54 6.54 0 0 1 3.27.46a1.78 1.78 0 0 0-.58-.33A1.91 1.91 0 0 0 2 0a2 2 0 0 0-2 2 1.91 1.91 0 0 0 .12.68 1.78 1.78 0 0 0 .32.57A6.54 6.54 0 0 1 1 6a6.54 6.54 0 0 1-.54 2.73 1.78 1.78 0 0 0-.32.57 2 2 0 0 0 0 1.36 1.78 1.78 0 0 0 .32.57A6.54 6.54 0 0 1 1 14a6.54 6.54 0 0 1-.54 2.73 1.78 1.78 0 0 0-.32.57A1.91 1.91 0 0 0 0 18a2 2 0 0 0 2 2 1.91 1.91 0 0 0 .68-.12 1.78 1.78 0 0 0 .57-.32A6.54 6.54 0 0 1 6 19a6.54 6.54 0 0 1 2.73.54 1.78 1.78 0 0 0 .57.32 2 2 0 0 0 1.36 0 1.78 1.78 0 0 0 .57-.32A6.54 6.54 0 0 1 14 19a6.54 6.54 0 0 1 2.73.54 1.78 1.78 0 0 0 .57.32 1.91 1.91 0 0 0 .7.14 2 2 0 0 0 2-2 1.91 1.91 0 0 0-.12-.68 1.78 1.78 0 0 0-.32-.57A6.54 6.54 0 0 1 19 14a6.54 6.54 0 0 1 .54-2.73zM17 15.5a1.39 1.39 0 0 1-.08.46 1.49 1.49 0 0 1-1.42 1h-11a1.5 1.5 0 0 1-1.42-1A1.39 1.39 0 0 1 3 15.5v-11A1.5 1.5 0 0 1 4.5 3h11A1.5 1.5 0 0 1 17 4.5z"/>
    <path class="white" d="M17 4.5v11a1.39 1.39 0 0 1-.08.46 7 7 0 0 0-3.09-4.82A3.93 3.93 0 0 0 14 10V8a4 4 0 0 0-8 0v2a3.93 3.93 0 0 0 .17 1.14A7 7 0 0 0 3.08 16a1.39 1.39 0 0 1-.08-.5v-11A1.5 1.5 0 0 1 4.5 3h11A1.5 1.5 0 0 1 17 4.5z"/>
    <path d="M7.2 12.85A5 5 0 0 0 5 17h-.5a1.5 1.5 0 0 1-1.42-1 7 7 0 0 1 3.09-4.82 3.84 3.84 0 0 0 1.03 1.67z" opacity=".75"/>
    <path d="M15 17h-1a1 1 0 0 0-2 0H8a1 1 0 0 0-2 0H5a5 5 0 0 1 2.2-4.15 4 4 0 0 0 5.6 0A5 5 0 0 1 15 17z" opacity=".25"/>
    <path d="M8 17H6a1 1 0 0 1 2 0zM14 17h-2a1 1 0 0 1 2 0zM16.92 16a1.49 1.49 0 0 1-1.42 1H15a5 5 0 0 0-2.2-4.15 3.84 3.84 0 0 0 1-1.71A7 7 0 0 1 16.92 16z" opacity=".75"/>
    <path d="M10 4a4 4 0 0 0-4 4v2a3.93 3.93 0 0 0 .17 1.14 3.84 3.84 0 0 0 1 1.71 4 4 0 0 0 5.6 0 3.84 3.84 0 0 0 1-1.71A3.93 3.93 0 0 0 14 10V8a4 4 0 0 0-4-4zm2 6a2.46 2.46 0 0 1 0 .28 2 2 0 0 1-4 0A2.46 2.46 0 0 1 8 10V8a2 2 0 0 1 4 0z" opacity=".5"/>
    <path d="M12 8v2a2.46 2.46 0 0 1 0 .28 2 2 0 0 1-4 0A2.46 2.46 0 0 1 8 10V8a2 2 0 0 1 4 0z" opacity=".25"/>
  </symbol>
  <symbol id="icon-edit" viewBox="0 0 20 20">
    <rect x="16.1" y="2.4" transform="matrix(-0.7071 0.7071 -0.7071 -0.7071 30.6421 -5.6924)" width="0.8" height="2.2" opacity=".25"/>
	  <path d="M19.7 3.3l-3-3c-0.4-0.4-1-0.4-1.4 0l-15 15C0.1 15.5 0 15.7 0 16v3c0 0.6 0.4 1 1 1h3c0.3 0 0.5-0.1 0.7-0.3l15-15C20.1 4.3 20.1 3.7 19.7 3.3zM17.6 4L17 4.6 15.4 3 16 2.4 17.6 4zM3.6 18H2v-1.6l12-12L15.6 6 3.6 18z"/>
  </symbol>
  <symbol id="icon-close" viewBox="0 0 20 20">
    <path d="M10 20C4.5 20 0 15.5 0 10 0 4.5 4.5 0 10 0c5.5 0 10 4.5 10 10C20 15.5 15.5 20 10 20zM10 2c-4.4 0-8 3.6-8 8s3.6 8 8 8 8-3.6 8-8S14.4 2 10 2z" opacity=".75"/>
    <path d="M11.4 10l3.3-3.3c0.4-0.4 0.4-1 0-1.4s-1-0.4-1.4 0L10 8.6 6.7 5.3c-0.4-0.4-1-0.4-1.4 0s-0.4 1 0 1.4L8.6 10l-3.3 3.3c-0.4 0.4-0.4 1 0 1.4C5.5 14.9 5.7 15 6 15s0.5-0.1 0.7-0.3l3.3-3.3 3.3 3.3c0.2 0.2 0.5 0.3 0.7 0.3s0.5-0.1 0.7-0.3c0.4-0.4 0.4-1 0-1.4L11.4 10z"/>
  </symbol>
  <symbol id="icon-markdown" viewBox="0 0 20 20">
    <path opacity=".5" d="M10 0C4.48 0 0 4.48 0 10s4.48 10 10 10 10-4.48 10-10S15.52 0 10 0zm0 18c-4.4 0-8-3.6-8-8s3.6-8 8-8 8 3.6 8 8-3.6 8-8 8z"/>
    <path opacity=".1" d="M10 2c-4.4 0-8 3.6-8 8s3.6 8 8 8 8-3.6 8-8-3.6-8-8-8zm2 14H8v-6h4v6zm0-8H8V4h4v4z"/>
    <path d="M8 4h4v4H8zM8 10h4v6H8z"/>
  </symbol>

</svg>
