<svg xmlns="http://www.w3.org/2000/svg" viewBox="0 0 16 16">
  <path fill="#fff" opacity=".5" d="M8.5 8V6h-1v2H7v1h2V8"/>
  <path fill="#fff" d="M14 0H2C.9 0 0 .9 0 2v9c0 1.1.9 2 2 2h5v2c0 .4.24.77.62.92.12.06.25.08.38.08.26 0 .52-.1.7-.3l2.7-2.7H14c1.1 0 2-.9 2-2V2c0-1.1-.9-2-2-2zm0 11h-3c-.27 0-.52.1-.7.3L9 12.6V12c0-.55-.45-1-1-1H2V2h12v9z"/>
  <path fill="#fff" d="M7.5 6h1c.55 0 1-.45 1-1V4c0-.55-.45-1-1-1h-1c-.55 0-1 .45-1 1v1c0 .55.45 1 1 1zM5 10h1c.55 0 1-.45 1-1V8c0-.55-.45-1-1-1H5c-.55 0-1 .45-1 1v1c0 .55.45 1 1 1zM9 8v1c0 .55.45 1 1 1h1c.55 0 1-.45 1-1V8c0-.55-.45-1-1-1h-1c-.55 0-1 .45-1 1z"/>
</svg>
